<svg width="30" height="30" viewBox="0 0 30 30" fill="none" xmlns="http://www.w3.org/2000/svg">
<rect width="30" height="30" rx="6" fill="#3B5998"/>
<path fill-rule="evenodd" clip-rule="evenodd" d="M19.0605 11.5C19.0605 11.85 18.8279 12.0833 18.4789 12.0833H16.7342V13.25H18.4789C18.6534 13.25 18.8279 13.25 18.9442 13.425C19.0605 13.6 19.1187 13.775 19.0605 13.95L18.4789 16.2833C18.4208 16.575 18.1882 16.75 17.8974 16.75H16.7342V20.8333C16.7342 21.1833 16.5016 21.4166 16.1526 21.4166H13.8263C13.4774 21.4166 13.2447 21.1833 13.2447 20.8333V16.75H12.0816C11.7326 16.75 11.5 16.5166 11.5 16.1666V13.8333C11.5 13.4833 11.7326 13.25 12.0816 13.25H13.2447V12.0833C13.2447 10.1583 14.815 8.58331 16.7342 8.58331H18.4789C18.8279 8.58331 19.0605 8.81665 19.0605 9.16665V11.5ZM17.7229 14.4166H16.1526C15.8037 14.4166 15.571 14.1833 15.571 13.8333V12.0833C15.571 11.4416 16.0945 10.9166 16.7342 10.9166H17.8974V9.74998H16.7342C15.4547 9.74998 14.4079 10.8 14.4079 12.0833V13.8333C14.4079 14.1833 14.1753 14.4166 13.8263 14.4166H12.6632V15.5833H13.8263C14.1753 15.5833 14.4079 15.8166 14.4079 16.1666V20.25H15.571V16.1666C15.571 15.8166 15.8037 15.5833 16.1526 15.5833H17.4321L17.7229 14.4166Z" fill="black"/>
<mask id="mask0_246_1348" style="mask-type:luminance" maskUnits="userSpaceOnUse" x="11" y="8" width="9" height="14">
<path fill-rule="evenodd" clip-rule="evenodd" d="M19.0605 11.5C19.0605 11.85 18.8279 12.0833 18.4789 12.0833H16.7342V13.25H18.4789C18.6534 13.25 18.8279 13.25 18.9442 13.425C19.0605 13.6 19.1187 13.775 19.0605 13.95L18.4789 16.2833C18.4208 16.575 18.1882 16.75 17.8974 16.75H16.7342V20.8333C16.7342 21.1833 16.5016 21.4166 16.1526 21.4166H13.8263C13.4774 21.4166 13.2447 21.1833 13.2447 20.8333V16.75H12.0816C11.7326 16.75 11.5 16.5166 11.5 16.1666V13.8333C11.5 13.4833 11.7326 13.25 12.0816 13.25H13.2447V12.0833C13.2447 10.1583 14.815 8.58331 16.7342 8.58331H18.4789C18.8279 8.58331 19.0605 8.81665 19.0605 9.16665V11.5ZM17.7229 14.4166H16.1526C15.8037 14.4166 15.571 14.1833 15.571 13.8333V12.0833C15.571 11.4416 16.0945 10.9166 16.7342 10.9166H17.8974V9.74998H16.7342C15.4547 9.74998 14.4079 10.8 14.4079 12.0833V13.8333C14.4079 14.1833 14.1753 14.4166 13.8263 14.4166H12.6632V15.5833H13.8263C14.1753 15.5833 14.4079 15.8166 14.4079 16.1666V20.25H15.571V16.1666C15.571 15.8166 15.8037 15.5833 16.1526 15.5833H17.4321L17.7229 14.4166Z" fill="white"/>
</mask>
<g mask="url(#mask0_246_1348)">
<rect x="8" y="8" width="14" height="14" fill="white"/>
</g>
</svg>
