<svg width="30" height="30" viewBox="0 0 30 30" fill="none" xmlns="http://www.w3.org/2000/svg">
<rect width="30" height="30" rx="6" fill="#211F1F"/>
<path d="M17.9631 18.1024C18.0822 18.4515 18.1418 18.8587 18.1418 19.2077V21.4183C18.1418 21.7673 17.9036 22 17.5463 22C17.1891 22 16.9509 21.7673 16.9509 21.4183V19.1495C17.0104 18.6842 16.8318 18.3351 16.5341 18.0443C16.3554 17.8697 16.2959 17.637 16.415 17.4625C16.4745 17.2298 16.7127 17.1135 16.8913 17.0553C18.6181 16.8808 20.2258 16.2991 20.2258 13.565C20.2258 12.9251 19.9876 12.2852 19.5113 11.7616C19.3327 11.5871 19.3327 11.3544 19.3922 11.1799C19.5708 10.7145 19.5708 10.2491 19.4517 9.78377C19.154 9.84194 18.6777 10.0165 17.9036 10.54C17.7845 10.6564 17.6059 10.6564 17.4272 10.5982C16.1768 10.2491 14.8073 10.2491 13.5569 10.5982C13.3782 10.6564 13.1996 10.6564 13.021 10.54C12.3064 10.0165 11.7705 9.84194 11.4728 9.78377C11.3537 10.2491 11.3537 10.7145 11.5324 11.1799C11.5919 11.4126 11.5919 11.6453 11.4133 11.7616C10.9369 12.2852 10.6987 12.9251 10.6987 13.565C10.6987 16.2991 12.3064 16.8808 14.0332 17.0553C14.2714 17.0553 14.45 17.2298 14.5096 17.4625C14.5691 17.6952 14.5096 17.9279 14.3905 18.0443C14.0928 18.3351 13.9737 18.6842 13.9737 19.0914V19.6149V19.6731V21.3601C13.9737 21.7091 13.7355 21.9418 13.3782 21.9418C13.021 21.9418 12.7828 21.7091 12.7828 21.3601V20.3712C10.9965 20.662 10.2224 19.6731 9.68649 19.0332C9.44831 18.7423 9.26968 18.5096 9.0315 18.4515C8.73378 18.3933 8.4956 18.0443 8.61469 17.7534C8.67424 17.4625 9.0315 17.2298 9.32922 17.3462C9.92467 17.5207 10.2819 17.9279 10.6392 18.3351C11.1156 18.975 11.5324 19.4404 12.7828 19.2077V19.1495C12.7828 18.8005 12.8423 18.3933 12.9614 18.1024C11.2942 17.7534 9.50786 16.7063 9.50786 13.6231C9.50786 12.7506 9.80558 11.9361 10.3415 11.2963C10.1033 10.4818 10.1628 9.7256 10.5201 8.96936C10.5797 8.79484 10.6987 8.67849 10.8774 8.62032C11.1156 8.56215 11.8896 8.4458 13.4973 9.43473C14.8073 9.14387 16.1768 9.14387 17.4272 9.43473C18.9754 8.4458 19.809 8.56215 20.0472 8.62032C20.2258 8.67849 20.3449 8.79484 20.4045 8.96936C20.7022 9.7256 20.7617 10.4818 20.5831 11.2381C21.119 11.878 21.4167 12.6924 21.4167 13.565C21.4167 16.8808 19.3922 17.8116 17.9631 18.1024Z" fill="black"/>
<mask id="mask0_246_1339" style="mask-type:luminance" maskUnits="userSpaceOnUse" x="8" y="8" width="14" height="14">
<path d="M17.9631 18.1024C18.0822 18.4515 18.1418 18.8587 18.1418 19.2077V21.4183C18.1418 21.7673 17.9036 22 17.5463 22C17.1891 22 16.9509 21.7673 16.9509 21.4183V19.1495C17.0104 18.6842 16.8318 18.3351 16.5341 18.0443C16.3554 17.8697 16.2959 17.637 16.415 17.4625C16.4745 17.2298 16.7127 17.1135 16.8913 17.0553C18.6181 16.8808 20.2258 16.2991 20.2258 13.565C20.2258 12.9251 19.9876 12.2852 19.5113 11.7616C19.3327 11.5871 19.3327 11.3544 19.3922 11.1799C19.5708 10.7145 19.5708 10.2491 19.4517 9.78377C19.154 9.84194 18.6777 10.0165 17.9036 10.54C17.7845 10.6564 17.6059 10.6564 17.4272 10.5982C16.1768 10.2491 14.8073 10.2491 13.5569 10.5982C13.3782 10.6564 13.1996 10.6564 13.021 10.54C12.3064 10.0165 11.7705 9.84194 11.4728 9.78377C11.3537 10.2491 11.3537 10.7145 11.5324 11.1799C11.5919 11.4126 11.5919 11.6453 11.4133 11.7616C10.9369 12.2852 10.6987 12.9251 10.6987 13.565C10.6987 16.2991 12.3064 16.8808 14.0332 17.0553C14.2714 17.0553 14.45 17.2298 14.5096 17.4625C14.5691 17.6952 14.5096 17.9279 14.3905 18.0443C14.0928 18.3351 13.9737 18.6842 13.9737 19.0914V19.6149V19.6731V21.3601C13.9737 21.7091 13.7355 21.9418 13.3782 21.9418C13.021 21.9418 12.7828 21.7091 12.7828 21.3601V20.3712C10.9965 20.662 10.2224 19.6731 9.68649 19.0332C9.44831 18.7423 9.26968 18.5096 9.0315 18.4515C8.73378 18.3933 8.4956 18.0443 8.61469 17.7534C8.67424 17.4625 9.0315 17.2298 9.32922 17.3462C9.92467 17.5207 10.2819 17.9279 10.6392 18.3351C11.1156 18.975 11.5324 19.4404 12.7828 19.2077V19.1495C12.7828 18.8005 12.8423 18.3933 12.9614 18.1024C11.2942 17.7534 9.50786 16.7063 9.50786 13.6231C9.50786 12.7506 9.80558 11.9361 10.3415 11.2963C10.1033 10.4818 10.1628 9.7256 10.5201 8.96936C10.5797 8.79484 10.6987 8.67849 10.8774 8.62032C11.1156 8.56215 11.8896 8.4458 13.4973 9.43473C14.8073 9.14387 16.1768 9.14387 17.4272 9.43473C18.9754 8.4458 19.809 8.56215 20.0472 8.62032C20.2258 8.67849 20.3449 8.79484 20.4045 8.96936C20.7022 9.7256 20.7617 10.4818 20.5831 11.2381C21.119 11.878 21.4167 12.6924 21.4167 13.565C21.4167 16.8808 19.3922 17.8116 17.9631 18.1024Z" fill="white"/>
</mask>
<g mask="url(#mask0_246_1339)">
<rect x="8" y="8" width="14" height="14" fill="white"/>
</g>
</svg>
