<svg width="24" height="20" viewBox="0 0 24 20" fill="none" xmlns="http://www.w3.org/2000/svg">
<path fill-rule="evenodd" clip-rule="evenodd" d="M3 5H21C21.6 5 22 4.6 22 4C22 3.4 21.6 3 21 3H3C2.4 3 2 3.4 2 4C2 4.6 2.4 5 3 5ZM22 10C22 10.6 21.6 11 21 11H3C2.4 11 2 10.6 2 10C2 9.4 2.4 9 3 9H21C21.6 9 22 9.4 22 10ZM3 15H21C21.6 15 22 15.4 22 16C22 16.6 21.6 17 21 17H3C2.4 17 2 16.6 2 16C2 15.4 2.4 15 3 15Z" fill="black"/>
<mask id="mask0_246_3576" style="mask-type:luminance" maskUnits="userSpaceOnUse" x="2" y="3" width="20" height="14">
<path fill-rule="evenodd" clip-rule="evenodd" d="M3 5H21C21.6 5 22 4.6 22 4C22 3.4 21.6 3 21 3H3C2.4 3 2 3.4 2 4C2 4.6 2.4 5 3 5ZM22 10C22 10.6 21.6 11 21 11H3C2.4 11 2 10.6 2 10C2 9.4 2.4 9 3 9H21C21.6 9 22 9.4 22 10ZM3 15H21C21.6 15 22 15.4 22 16C22 16.6 21.6 17 21 17H3C2.4 17 2 16.6 2 16C2 15.4 2.4 15 3 15Z" fill="white"/>
</mask>
<g mask="url(#mask0_246_3576)">
<rect y="-2" width="24" height="24" fill="#6E6B7B"/>
</g>
</svg>
