<svg width="745" height="544" viewBox="0 0 745 544" fill="none" xmlns="http://www.w3.org/2000/svg">
<g id="Illustration">
<g id="Shape">
<g id="Group 59">
<path id="Path" opacity="0.0845424" d="M673.32 164.249C682.698 151.73 700.453 149.18 712.979 158.552C725.379 167.83 728.005 185.315 718.957 197.81L718.679 198.187L644.379 297.373C634.916 310.007 617.34 313.21 604.04 304.802L603.639 304.544L556.865 273.948L509.705 342.593C500.937 355.356 483.564 358.693 470.702 350.17L470.313 349.908C457.543 341.146 454.204 323.783 462.732 310.928L462.994 310.539L524.793 220.586C533.999 207.185 552.141 203.492 565.841 212.144L566.255 212.41L613.898 243.574L673.32 164.249Z" fill="#7367F0"/>
<path id="Path_2" opacity="0.0845424" d="M430.118 3.29424C432.496 -0.160162 437.232 -1.03872 440.696 1.33194C444.115 3.67139 445.018 8.30087 442.756 11.7421L442.664 11.8791L424.148 38.779C421.433 42.5698 416.181 43.4829 412.345 40.8606L412.208 40.7654L401.574 33.1946L390.048 51.4538C387.839 54.9536 383.234 56.0368 379.696 53.9185L379.557 53.8332C376.047 51.6305 374.96 47.0392 377.085 43.5109L377.17 43.3722L392.455 19.158C394.973 15.169 400.257 13.9705 404.258 16.4812L404.467 16.6168L404.673 16.7584L415.53 24.4883L430.118 3.29424Z" fill="#7367F0"/>
<path id="+" opacity="0.070266" fill-rule="evenodd" clip-rule="evenodd" d="M632.402 129.308C633.782 129.308 634.902 128.189 634.902 126.808V108.831H652.891C654.271 108.831 655.391 107.711 655.391 106.331V97.676C655.391 96.2953 654.271 95.176 652.891 95.176H634.902V77.0663C634.902 75.6856 633.782 74.5663 632.402 74.5663H623.606C622.226 74.5663 621.106 75.6856 621.106 77.0663V95.176H603.117C601.736 95.176 600.617 96.2953 600.617 97.676V106.331C600.617 107.711 601.736 108.831 603.117 108.831H621.106V126.808C621.106 128.189 622.226 129.308 623.606 129.308H632.402Z" fill="#00CFE8"/>
<path id="Oval" opacity="0.0739397" fill-rule="evenodd" clip-rule="evenodd" d="M91.602 20C142.193 20 183.206 60.9886 183.206 111.551C183.206 162.113 142.193 203.101 91.602 203.101C41.0105 203.101 -0.00195312 162.113 -0.00195312 111.551C-0.00195312 60.9886 41.0105 20 91.602 20ZM91.602 65.3034C66.0455 65.3034 45.3278 86.0089 45.3278 111.551C45.3278 137.092 66.0455 157.798 91.602 157.798C117.159 157.798 137.876 137.092 137.876 111.551C137.876 86.0089 117.159 65.3034 91.602 65.3034Z" fill="#00CFE8"/>
</g>
</g>
<g id="Meeting">
<g id="Group 63">
<path id="Rectangle" fill-rule="evenodd" clip-rule="evenodd" d="M60.5957 101C60.5957 92.1634 67.7591 85 76.5957 85H546.724C555.561 85 562.724 92.1634 562.724 101V305.224C562.724 314.061 555.561 321.224 546.724 321.224H76.5957C67.7592 321.224 60.5957 314.061 60.5957 305.224V101Z" fill="#E7FCFF"/>
<path id="Rectangle_2" opacity="0.383371" fill-rule="evenodd" clip-rule="evenodd" d="M68.1465 101C68.1465 92.1634 75.3099 85 84.1465 85H546.724C555.561 85 562.724 92.1634 562.724 101V305.224C562.724 314.061 555.561 321.224 546.724 321.224H84.1465C75.31 321.224 68.1465 314.061 68.1465 305.224V101Z" fill="#00CFE8"/>
<path id="Rectangle_3" fill-rule="evenodd" clip-rule="evenodd" d="M75.6973 102.559C75.6973 97.0363 80.1744 92.5592 85.6973 92.5592H545.173C550.696 92.5592 555.173 97.0363 555.173 102.559V303.665C555.173 309.188 550.696 313.665 545.173 313.665H85.6973C80.1744 313.665 75.6973 309.188 75.6973 303.665L75.6973 102.559Z" fill="#E7FCFF"/>
<path id="Rectangle_4" fill-rule="evenodd" clip-rule="evenodd" d="M274.85 299.822C274.85 296.509 277.536 293.822 280.85 293.822H350.021C353.334 293.822 356.021 296.509 356.021 299.822V313.665H274.85V299.822Z" fill="#D4EFFF"/>
<path id="Rectangle_5" d="M282.4 299.822C282.4 296.509 285.087 293.822 288.4 293.822H357.572C360.885 293.822 363.572 296.509 363.572 299.822V321.224H282.4V299.822Z" fill="#91D6FF"/>
</g>
<g id="ElementCard20">
<g id="Rectangle_6" filter="url(#filter0_dd_6_1711)">
<path fill-rule="evenodd" clip-rule="evenodd" d="M89.8555 107.397C89.8555 104.421 92.2681 102.008 95.2442 102.008H220.268C223.244 102.008 225.657 104.421 225.657 107.397V148.047C225.657 151.023 223.244 153.436 220.268 153.436H95.2442C92.2681 153.436 89.8555 151.023 89.8555 148.047V107.397Z" fill="white"/>
</g>
<path id="Rectangle_7" opacity="0.454078" fill-rule="evenodd" clip-rule="evenodd" d="M130.037 132.559C130.037 131.716 130.721 131.032 131.565 131.032H156.992C157.836 131.032 158.52 131.716 158.52 132.559C158.52 133.403 157.836 134.087 156.992 134.087H131.565C130.721 134.087 130.037 133.403 130.037 132.559Z" fill="#C7C1FF"/>
<path id="Rectangle_8" fill-rule="evenodd" clip-rule="evenodd" d="M130.037 123.903C130.037 123.059 130.721 122.376 131.565 122.376H146.82C147.663 122.376 148.347 123.059 148.347 123.903C148.347 124.747 147.663 125.431 146.82 125.431H131.565C130.721 125.431 130.037 124.747 130.037 123.903Z" fill="#8478FF"/>
<g id="Group 9">
<path id="Path_3" fill-rule="evenodd" clip-rule="evenodd" d="M204.813 120.284C206.983 117.429 211.053 116.876 213.904 119.049C214.56 119.548 215.115 120.169 215.539 120.876C215.758 121.241 215.639 121.714 215.275 121.933C214.911 122.151 214.439 122.033 214.22 121.668C213.897 121.128 213.473 120.655 212.973 120.274C210.842 118.651 207.819 119.022 206.14 121.085L206.037 121.216L203.652 124.353C199.927 129.254 193.624 131.414 187.693 129.848L187.439 129.779L185.521 129.237C185.397 129.202 185.273 129.171 185.147 129.143C181.639 128.369 178.168 130.541 177.309 134.011L177.269 134.182L176.873 135.98C176.733 136.617 176.462 137.217 176.076 137.741C174.551 139.817 171.633 140.262 169.559 138.735C169.217 138.483 169.144 138.001 169.396 137.659C169.647 137.316 170.129 137.243 170.471 137.495C171.86 138.518 173.815 138.22 174.837 136.829C175.063 136.521 175.231 136.175 175.332 135.808L175.371 135.649L175.767 133.851C176.735 129.451 181.083 126.67 185.478 127.639L185.709 127.694L185.938 127.755L187.857 128.297C193.172 129.799 198.857 127.946 202.272 123.622L202.428 123.421L204.813 120.284Z" fill="#8478FF"/>
<path id="Path_4" fill-rule="evenodd" clip-rule="evenodd" d="M197.882 119.353C199.452 115.857 203.557 114.297 207.049 115.869C207.751 116.184 208.395 116.615 208.956 117.143C210.275 118.384 211.497 120.347 212.642 123.035C212.808 123.426 212.627 123.878 212.236 124.045C211.845 124.212 211.394 124.03 211.227 123.639C210.158 121.13 209.043 119.338 207.902 118.264C207.466 117.854 206.965 117.519 206.419 117.273C203.75 116.072 200.623 117.22 199.353 119.838L199.285 119.985L198.79 121.086C198.675 121.343 198.542 121.591 198.394 121.83C196.566 124.766 192.707 125.664 189.774 123.834C189.425 123.616 189.042 123.458 188.641 123.366C186.689 122.919 184.745 124.102 184.23 126.022L184.197 126.157L183.341 129.899C183.083 131.026 182.535 132.067 181.753 132.917C179.312 135.571 175.214 135.785 172.513 133.434L172.369 133.305L168.883 130.092C168.57 129.804 168.55 129.317 168.838 129.004C169.107 128.712 169.548 128.675 169.86 128.906L169.925 128.959L173.411 132.173C175.484 134.084 178.713 133.95 180.621 131.875C181.176 131.271 181.577 130.543 181.792 129.754L181.841 129.555L182.697 125.813C183.344 122.985 186.159 121.217 188.984 121.865C189.481 121.979 189.958 122.165 190.4 122.416L190.588 122.527C192.8 123.907 195.71 123.23 197.088 121.016C197.163 120.896 197.232 120.772 197.296 120.646L197.387 120.455L197.882 119.353Z" fill="#C7C1FF"/>
</g>
<ellipse id="Oval_2" cx="112.489" cy="128.231" rx="10.4267" ry="10.4383" fill="#8478FF"/>
</g>
<g id="ElementCard3">
<g id="Rectangle_9" filter="url(#filter1_dd_6_1711)">
<path fill-rule="evenodd" clip-rule="evenodd" d="M89.8555 165.592C89.8555 162.83 92.094 160.592 94.8555 160.592H253.805C256.566 160.592 258.805 162.83 258.805 165.592V298.271C258.805 301.033 256.566 303.271 253.805 303.271H94.8555C92.094 303.271 89.8555 301.033 89.8555 298.271V165.592Z" fill="white"/>
</g>
<mask id="mask0_6_1711" style="mask-type:luminance" maskUnits="userSpaceOnUse" x="89" y="160" width="170" height="144">
<path id="Rectangle_10" fill-rule="evenodd" clip-rule="evenodd" d="M89.8555 165.592C89.8555 162.83 92.094 160.592 94.8555 160.592H253.805C256.566 160.592 258.805 162.83 258.805 165.592V298.271C258.805 301.033 256.566 303.271 253.805 303.271H94.8555C92.094 303.271 89.8555 301.033 89.8555 298.271V165.592Z" fill="white"/>
</mask>
<g mask="url(#mask0_6_1711)">
<g id="Path 3" filter="url(#filter2_d_6_1711)">
<path d="M112.508 270.2C112.508 270.2 132.593 264.425 141.449 252.639C150.305 240.853 153.291 229.428 168.522 229.428C183.754 229.428 185.706 246.926 202.172 246.926C218.638 246.926 219.538 224.612 225.011 215.752C230.483 206.892 239.928 206.892 239.928 206.892" stroke="#8EEAF6" stroke-width="4.004" stroke-linecap="round"/>
</g>
<path id="Path 3_2" opacity="0.414737" fill-rule="evenodd" clip-rule="evenodd" d="M112.508 268.982C112.508 268.982 132.593 263.232 141.449 251.497C150.305 239.761 153.291 228.386 168.522 228.386C183.754 228.386 185.706 245.808 202.172 245.808C218.638 245.808 219.538 223.591 225.011 214.769C230.483 205.947 239.928 205.947 239.928 205.947V280.349C239.928 282.05 238.549 283.429 236.848 283.429H115.588C113.887 283.429 112.508 282.05 112.508 280.349V268.982Z" fill="#CEF9FF"/>
<rect id="Rectangle_11" x="103.07" y="174.765" width="52.8556" height="5.66939" rx="2.83469" fill="#8EEAF6"/>
<path id="Rectangle_12" fill-rule="evenodd" clip-rule="evenodd" d="M103.07 191.773C103.07 190.208 104.339 188.939 105.905 188.939H124.776C126.341 188.939 127.61 190.208 127.61 191.773C127.61 193.339 126.341 194.608 124.776 194.608H105.905C104.339 194.608 103.07 193.339 103.07 191.773Z" fill="#8EEAF6" fill-opacity="0.401934"/>
<ellipse id="Oval_3" cx="226.241" cy="178.072" rx="3.30348" ry="3.30714" fill="#8EEAF6" fill-opacity="0.451705"/>
<ellipse id="Oval_4" cx="235.68" cy="178.072" rx="3.30348" ry="3.30714" fill="#8EEAF6" fill-opacity="0.451705"/>
<ellipse id="Oval_5" cx="245.118" cy="178.072" rx="3.30348" ry="3.30714" fill="#8EEAF6" fill-opacity="0.451705"/>
</g>
</g>
<g id="ElementCard11">
<g id="Rectangle_13" filter="url(#filter3_d_6_1711)">
<path fill-rule="evenodd" clip-rule="evenodd" d="M285.232 122.721C285.232 118.588 288.583 115.237 292.717 115.237H517.929C522.063 115.237 525.414 118.588 525.414 122.721V273.237C525.414 277.371 522.063 280.721 517.929 280.721H292.717C288.583 280.721 285.232 277.371 285.232 273.237V122.721Z" fill="white"/>
</g>
<g id="Group 26">
<path id="Path_5" fill-rule="evenodd" clip-rule="evenodd" d="M325.852 200.101V259.287H317.021V200.101H325.852Z" fill="#E7E4FF"/>
<path id="Path_6" fill-rule="evenodd" clip-rule="evenodd" d="M325.852 214.245V259.287H317.021V214.245H325.852Z" fill="#C7C1FF"/>
<path id="Path_7" fill-rule="evenodd" clip-rule="evenodd" d="M325.852 242.533V259.287H317.021V242.533H325.852Z" fill="#8478FF"/>
</g>
<g id="Group 26_2">
<path id="Path_8" fill-rule="evenodd" clip-rule="evenodd" d="M347.043 185.957V259.287H338.213V185.957H347.043Z" fill="#E7E4FF"/>
<path id="Path_9" fill-rule="evenodd" clip-rule="evenodd" d="M347.043 207.173V259.287H338.213V207.173H347.043Z" fill="#C7C1FF"/>
<path id="Path_10" fill-rule="evenodd" clip-rule="evenodd" d="M347.043 242.533V259.287H338.213V242.533H347.043Z" fill="#8478FF"/>
</g>
<g id="Group 26_3">
<path id="Path_11" fill-rule="evenodd" clip-rule="evenodd" d="M368.236 196.565V259.287H359.406V196.565H368.236Z" fill="#E7E4FF"/>
<path id="Path_12" fill-rule="evenodd" clip-rule="evenodd" d="M368.236 217.781V259.287H359.406V217.781H368.236Z" fill="#C7C1FF"/>
<path id="Path_13" fill-rule="evenodd" clip-rule="evenodd" d="M368.236 246.069V259.287H359.406V246.069H368.236Z" fill="#8478FF"/>
</g>
<g id="Group 26_4">
<path id="Path_14" fill-rule="evenodd" clip-rule="evenodd" d="M389.428 178.885V259.287H380.598V178.885H389.428Z" fill="#E7E4FF"/>
<path id="Path_15" fill-rule="evenodd" clip-rule="evenodd" d="M389.428 200.101V259.287H380.598V200.101H389.428Z" fill="#C7C1FF"/>
<path id="Path_16" fill-rule="evenodd" clip-rule="evenodd" d="M389.428 228.389V259.287H380.598V228.389H389.428Z" fill="#8478FF"/>
</g>
<g id="Group 26_5">
<path id="Path_17" fill-rule="evenodd" clip-rule="evenodd" d="M410.621 164.741V259.287H401.791V164.741H410.621Z" fill="#E7E4FF"/>
<path id="Path_18" fill-rule="evenodd" clip-rule="evenodd" d="M410.621 193.029V259.287H401.791V193.029H410.621Z" fill="#C7C1FF"/>
<path id="Path_19" fill-rule="evenodd" clip-rule="evenodd" d="M410.621 235.461V259.287H401.791V235.461H410.621Z" fill="#8478FF"/>
</g>
<g id="Group 26_6">
<path id="Path_20" fill-rule="evenodd" clip-rule="evenodd" d="M431.815 185.957V259.287H422.984V185.957H431.815Z" fill="#E7E4FF"/>
<path id="Path_21" fill-rule="evenodd" clip-rule="evenodd" d="M431.815 207.173V259.287H422.984V207.173H431.815Z" fill="#C7C1FF"/>
<path id="Path_22" fill-rule="evenodd" clip-rule="evenodd" d="M431.815 239.704V259.287H422.984V239.704H431.815Z" fill="#8478FF"/>
</g>
<g id="Group 26_7">
<path id="Path_23" fill-rule="evenodd" clip-rule="evenodd" d="M453.006 193.029V259.287H444.176V193.029H453.006Z" fill="#E7E4FF"/>
<path id="Path_24" fill-rule="evenodd" clip-rule="evenodd" d="M453.006 207.173V259.287H444.176V207.173H453.006Z" fill="#C7C1FF"/>
<path id="Path_25" fill-rule="evenodd" clip-rule="evenodd" d="M453.006 234.753V259.287H444.176V234.753H453.006Z" fill="#8478FF"/>
</g>
<g id="Group 26_8">
<path id="Path_26" fill-rule="evenodd" clip-rule="evenodd" d="M474.199 178.885V259.287H465.369V178.885H474.199Z" fill="#E7E4FF"/>
<path id="Path_27" fill-rule="evenodd" clip-rule="evenodd" d="M474.199 207.173V259.287H465.369V207.173H474.199Z" fill="#C7C1FF"/>
<path id="Path_28" fill-rule="evenodd" clip-rule="evenodd" d="M474.199 241.825V259.287H465.369V241.825H474.199Z" fill="#8478FF"/>
</g>
<g id="Group 26_9">
<path id="Path_29" fill-rule="evenodd" clip-rule="evenodd" d="M495.391 193.029V259.287H486.561V193.029H495.391Z" fill="#E7E4FF"/>
<path id="Path_30" fill-rule="evenodd" clip-rule="evenodd" d="M495.391 207.173V259.287H486.561V207.173H495.391Z" fill="#C7C1FF"/>
<path id="Path_31" fill-rule="evenodd" clip-rule="evenodd" d="M495.391 241.825V259.287H486.561V241.825H495.391Z" fill="#8478FF"/>
</g>
<path id="Rectangle_14" opacity="0.57573" fill-rule="evenodd" clip-rule="evenodd" d="M314.195 145.646C314.195 144.475 315.145 143.525 316.317 143.525H386.954C388.125 143.525 389.075 144.475 389.075 145.646C389.075 146.818 388.125 147.768 386.954 147.768H316.317C315.145 147.768 314.195 146.818 314.195 145.646Z" fill="#8C81FF"/>
<rect id="Rectangle_15" x="314.195" y="131.502" width="39.5593" height="4.2432" rx="2.1216" fill="#8478FF"/>
</g>
<g id="Chair4">
<path id="Path_32" fill-rule="evenodd" clip-rule="evenodd" d="M558.038 449.882L569.48 540.29L563.481 540.21L552.038 450.728L558.038 449.882Z" fill="#BFE7FF"/>
<path id="Path_33" fill-rule="evenodd" clip-rule="evenodd" d="M480.615 464.093C475.399 464.093 471.17 459.864 471.17 454.648C471.17 449.431 475.399 445.203 480.615 445.203H518.377C524.099 445.203 528.881 440.849 529.417 435.153L535.455 370.96C535.99 365.264 540.772 360.91 546.494 360.91H570.194C576.653 360.91 581.744 366.408 581.249 372.848L575.025 453.855C574.581 459.632 569.764 464.093 563.97 464.093H480.615Z" fill="#91D6FF"/>
<path id="Combined Shape" fill-rule="evenodd" clip-rule="evenodd" d="M471.172 454.567C471.224 454.568 471.276 454.569 471.328 454.569H554.458C560.251 454.569 565.068 450.109 565.513 444.332L571.733 363.614C571.801 362.734 571.764 361.872 571.634 361.038C571.082 360.954 570.517 360.91 569.94 360.91H546.352C540.631 360.91 535.85 365.262 535.313 370.957L529.28 434.916C528.742 440.611 523.961 444.963 518.241 444.963H480.591C475.388 444.963 471.17 449.181 471.17 454.384C471.17 454.445 471.171 454.506 471.172 454.567Z" fill="#BFE7FF"/>
</g>
<g id="Wom1.4">
<g id="Head">
<path id="Path_34" fill-rule="evenodd" clip-rule="evenodd" d="M545.274 345.34C557.472 342.498 558.275 325.746 549.001 319.935C558.565 299.875 536.448 279.958 521.298 292.241C511.366 287.987 503.113 304.586 512.354 317.478C508.479 339.613 516.366 345.335 530.582 345.578L545.274 345.34Z" fill="#422851"/>
<path id="Path_35" fill-rule="evenodd" clip-rule="evenodd" d="M545.121 341.339C545.121 341.339 539.187 339.946 538.981 330.217C538.776 320.489 538.92 317.169 538.92 317.169L525.85 316.933C525.85 316.933 525.707 327.775 525.705 331.696C525.7 342.229 518.365 341.339 518.365 341.339C518.365 341.339 519.889 349.88 531.733 350.546C540.98 351.067 545.121 341.339 545.121 341.339Z" fill="url(#paint0_linear_6_1711)"/>
<path id="Path_36" fill-rule="evenodd" clip-rule="evenodd" d="M541.968 312.311C547.799 312.085 546.848 320.625 540.791 320.614C540.791 320.614 537.273 332.746 525.059 332.746C515.139 332.746 514.494 318.606 514.404 315.785C514.307 312.777 514.295 302.896 514.295 302.896L542.195 302.883L541.968 312.311Z" fill="url(#paint1_linear_6_1711)"/>
<path id="Path_37" d="M527.414 324.596C527.414 324.596 524.505 327.06 521.135 324.752" stroke="#F77B7B" stroke-width="1.5" stroke-linecap="round"/>
<path id="Path_38" d="M525.492 327.45C524.587 327.868 523.715 327.898 522.937 327.482" stroke="#F49494" stroke-linecap="round"/>
<path id="Path 8" d="M541.373 316.904C541.313 315.534 541.73 314.446 543.127 314.227" stroke="#F77B7B" stroke-linecap="round"/>
<path id="Path_39" fill-rule="evenodd" clip-rule="evenodd" d="M542.89 311.256C542.89 311.256 539.694 315.546 539.047 315.569C538.4 315.592 538.173 309.989 538.173 309.989C534.252 309.689 524.331 307.712 521.899 303.107C520.198 307.171 516.947 308.975 514.81 308.629L514.405 317.262L513.408 299.906H543.672L542.89 311.256Z" fill="#422851"/>
</g>
<g id="LLeg">
<path id="Path_40" fill-rule="evenodd" clip-rule="evenodd" d="M485.402 512.891C485.402 512.891 490.633 523.462 486.345 526.793C482.05 530.125 470.706 536.368 470.706 536.368L500.76 534.478L494.079 511.424L485.402 512.891Z" fill="url(#paint2_linear_6_1711)"/>
<path id="Path_41" fill-rule="evenodd" clip-rule="evenodd" d="M497.854 522.951C496.371 523.125 497.955 528.121 494.744 528.501C491.539 528.88 489.981 524.147 486.345 525.647C482.708 527.148 469.444 534.906 468.922 538.078C468.393 541.249 473.335 542.182 480.112 541.466C486.889 540.75 488.138 538.337 493.226 539.309C498.307 540.28 502.113 538.732 501.946 535.017C501.778 531.303 499.337 522.778 497.854 522.951Z" fill="#222D4E"/>
<path id="Path 14" fill-rule="evenodd" clip-rule="evenodd" d="M484.685 526.417L485.345 527.407C485.669 527.893 485.51 528.551 485.001 528.835L476.035 533.841C475.744 534.003 475.392 534.01 475.095 533.86L473.703 533.153C475.889 531.569 477.676 530.379 479.652 529.21C481.168 528.313 482.847 527.388 484.685 526.417Z" fill="white" fill-opacity="0.540975"/>
<path id="Path_42" fill-rule="evenodd" clip-rule="evenodd" d="M530.675 419.725C521.576 420.131 470.937 431.338 461.736 433.242C452.536 435.146 444.757 445.448 451.773 457.377C459.653 470.769 479.984 508.8 484.921 517.373C487.364 521.616 499.69 519.237 496.794 512.115C491.397 498.838 488.891 465.485 475.13 453.324C475.13 453.324 521.407 461.382 541.396 452.152C555.924 445.442 552.638 418.742 530.675 419.725Z" fill="url(#paint3_linear_6_1711)"/>
</g>
<g id="LArm">
<path id="Path_43" fill-rule="evenodd" clip-rule="evenodd" d="M466.208 365.893C466.208 365.893 466.311 358.486 463.722 354.615C461.132 350.744 461.029 346.632 459.069 346.766C457.109 346.901 459.05 356.459 459.05 356.459C459.05 356.459 456.563 355.508 454.777 354.306C452.99 353.103 447.573 347.176 446.308 348.226C444.161 350.016 447.618 360.111 449.501 362.13C451.39 364.148 461.71 370.787 461.71 370.787L466.208 365.893Z" fill="url(#paint4_linear_6_1711)"/>
<path id="Path_44" fill-rule="evenodd" clip-rule="evenodd" d="M522.122 361.454C517.889 371.276 510.14 389.32 506.945 394.703C502.941 401.444 496.628 404.414 489.236 399.413C481.468 394.157 460.081 373.657 459.454 369.014C458.832 364.37 464.067 358.799 468.804 361.683C473.54 364.568 493.222 380.956 493.222 380.956C493.222 380.956 501.165 360.583 507.555 348.782C513.088 338.572 528.564 346.523 522.122 361.454Z" fill="#6A5EE3"/>
<path id="Path_45" fill-rule="evenodd" clip-rule="evenodd" d="M493.141 380.966C493.141 380.966 491.007 388.206 490.509 387.787C490.01 387.368 490.89 379.074 490.89 379.074L493.141 380.966Z" fill="black" fill-opacity="0.302803"/>
</g>
<g id="Body">
<path id="Path_46" fill-rule="evenodd" clip-rule="evenodd" d="M564.42 349.62C564.42 349.62 554.221 383.791 553.918 390.259C553.616 396.728 562.26 415.74 560.789 420.545C557.395 431.65 514.072 436.431 512.417 421.493C511.645 414.526 513.251 408.273 511.4 400.064C509.556 391.855 502.142 379.657 506.347 368.188C510.552 356.719 509.425 346.109 512.433 344.103C515.441 342.098 522.472 339.968 522.472 339.968C525.891 345.002 537.434 344.929 542.941 339.613C542.941 339.613 556.624 342.269 564.42 349.62Z" fill="#7367F0"/>
<path id="Path_47" fill-rule="evenodd" clip-rule="evenodd" d="M555.28 355.154C548.481 365.949 548.501 384.745 544.85 387.206C541.199 389.668 526.987 387.252 526.987 389.202C526.987 391.151 546.626 409.016 543.402 417.557C541.714 422.029 542.172 426.029 544.776 429.559L545.626 429.373C553.364 427.624 559.585 424.482 560.788 420.545C562.26 415.74 552.619 396.728 552.921 390.259C553.177 384.768 561.284 359.316 563.729 351.748C561.738 348.234 558.922 349.37 555.28 355.154Z" fill="black" fill-opacity="0.199355"/>
</g>
<g id="RArm">
<path id="Path_48" fill-rule="evenodd" clip-rule="evenodd" d="M543.688 383.794C543.688 383.794 535.097 376.187 532.467 375.304C529.837 374.421 514.434 373.36 514.532 375.355C514.642 377.493 522.915 377.37 523.772 378.421C524.629 379.472 524.824 386.659 528.064 387.465C531.298 388.272 540.993 389.663 540.993 389.663L543.688 383.794Z" fill="url(#paint5_linear_6_1711)"/>
<path id="Path_49" fill-rule="evenodd" clip-rule="evenodd" d="M566.542 351.583C575.593 364.364 583.32 383.833 586.287 391.423C589.253 399.013 586.261 410.462 573.218 408.214C560.198 405.973 539.482 393.792 537.19 390.239C534.898 386.686 538.38 380.221 542.765 381.067C546.828 381.85 566.978 390.423 566.978 390.423C566.978 390.423 554.015 367.432 550.849 361.269C545.561 350.976 558.569 340.322 566.542 351.583Z" fill="#6A5EE3"/>
<path id="Path_50" fill-rule="evenodd" clip-rule="evenodd" d="M566.772 390.265C566.772 390.265 573.562 393.641 572.734 392.225C571.906 390.81 564.181 385.837 564.181 385.837L566.772 390.265Z" fill="black" fill-opacity="0.302803"/>
</g>
</g>
<g id="Men3.2">
<g id="LLeg_2">
<path id="Path_51" fill-rule="evenodd" clip-rule="evenodd" d="M234.062 509.194C234.062 509.194 233.926 517.906 239.272 521C244.618 524.095 252.901 529.844 252.901 529.844L221.393 530.913L222.291 509.116L234.062 509.194Z" fill="#F8CFCF"/>
<path id="Path_52" fill-rule="evenodd" clip-rule="evenodd" d="M220.292 518.794L219.779 532.926H227.098L227.599 531.105C227.599 531.105 230.355 530.992 231.947 531.779C233.63 532.61 233.856 533.014 233.856 533.014L257.07 533.063C257.07 533.063 258.215 528.495 251.139 525.191C244.063 521.887 238.91 517.197 237.932 516.717C236.946 516.233 234.957 515.96 233.556 517.096C232.156 518.232 231.048 521.219 227.874 521.312C223.789 521.433 221.442 516.404 220.292 518.794Z" fill="#4B4B4B"/>
<path id="Path 38" d="M240.131 518.25L237.725 520.577" stroke="white" stroke-width="2" stroke-linecap="round"/>
<path id="Path 38_2" d="M243.639 520.014L241.232 522.342" stroke="white" stroke-width="2" stroke-linecap="round"/>
<path id="Path 38_3" d="M247.149 521.779L244.742 524.107" stroke="white" stroke-width="2" stroke-linecap="round"/>
<path id="Path_53" fill-rule="evenodd" clip-rule="evenodd" d="M211 321C211 321 219.753 417.38 220.026 424.079C220.298 430.779 217.214 442.342 217.274 454.874C217.334 467.406 218.4 511.575 218.4 511.575L237.71 511.984C237.71 511.984 245.825 432.167 245.913 420.198C246 408.229 246.744 322.152 246.744 322.152L211 321Z" fill="#383838"/>
<path id="Path_54" opacity="0.283552" fill-rule="evenodd" clip-rule="evenodd" d="M224.919 427.079L224.94 427.318C225.231 431.404 222.693 444.846 217.327 467.645L217.274 454.874C217.215 442.565 220.189 431.192 220.037 424.443L220.026 424.079C219.934 421.822 218.879 409.379 217.521 393.872L218.155 396.143C221.878 409.595 224.132 419.908 224.919 427.079Z" fill="white" fill-opacity="0.192499"/>
</g>
<g id="RLeg">
<path id="Path_55" fill-rule="evenodd" clip-rule="evenodd" d="M187.478 507.966L183.754 530.525L197.482 530.456L197.916 507.613L187.478 507.966Z" fill="#F8CFCF"/>
<path id="Path_56" fill-rule="evenodd" clip-rule="evenodd" d="M186.001 517.724C184.657 518.015 183.683 519.182 183.638 520.556L183.527 523.91C181.585 526.064 180.668 532.287 180.571 532.977C180.565 533.02 180.561 533.061 180.566 533.105C180.851 536.154 200.82 536.116 202.695 533.249C202.78 533.118 202.786 532.963 202.761 532.809C202.551 531.538 201.435 525.385 199.29 523.707L199.277 520.384C199.272 519.031 198.362 517.849 197.055 517.498L194.992 516.944C192.985 514.017 190.25 514.121 187.907 517.31L186.001 517.724Z" fill="#4B4B4B"/>
<path id="Path 39" d="M188.686 519.748H194.243" stroke="white" stroke-width="2" stroke-linecap="round"/>
<path id="Path 39_2" d="M188.686 522.393H194.243" stroke="white" stroke-width="2" stroke-linecap="round"/>
<path id="Path 39_3" d="M189.57 525.037H193.36" stroke="white" stroke-width="2" stroke-linecap="round"/>
<path id="Path_57" fill-rule="evenodd" clip-rule="evenodd" d="M194.401 322.265C194.401 322.265 188.268 388.331 188.351 400.982C188.434 413.635 190.239 419.191 187.671 428.267C185.102 437.343 182.912 509.786 182.912 509.786L201.903 511.864C201.903 511.864 214.036 434.346 215.355 423.599C216.674 412.851 232.98 321.353 232.98 321.353L194.401 322.265Z" fill="#2E2E2E"/>
<path id="Path_58" opacity="0.283552" fill-rule="evenodd" clip-rule="evenodd" d="M199.53 367.105L198.372 371.298C194.98 383.673 191.849 396.76 192.669 415.455L192.709 416.309C192.91 420.358 190.334 443.861 184.98 486.816L184.471 489.835C183.946 492.915 183.478 495.542 183.068 497.717L183.185 493.913C183.867 472.914 185.704 435.215 187.67 428.267C190.238 419.191 188.434 413.635 188.35 400.982C188.292 392.126 191.28 357.097 193.078 336.877L194.401 322.265L202.417 322.076L202.437 324.326C202.578 345.099 201.609 359.358 199.53 367.105Z" fill="white" fill-opacity="0.192499"/>
</g>
<g id="LArm_2">
<g id="Group 6">
<path id="Path_59" fill-rule="evenodd" clip-rule="evenodd" d="M287.834 240.566C287.834 240.566 286.249 231.828 286.819 230.058C287.306 228.529 291.908 226.323 291.908 226.323C291.908 226.323 299.912 213.818 301.664 215.091C303.089 216.123 297.496 225.343 297.496 225.343C297.496 225.343 302.596 230.636 302.525 233.002C302.454 235.368 294.2 242.774 294.2 242.774L287.834 240.566Z" fill="#F8CFCF"/>
<path id="Path_60" fill-rule="evenodd" clip-rule="evenodd" d="M292.08 226.198C292.08 226.198 295.625 225.721 296.189 226.812C296.67 227.742 293.725 230.379 293.725 231.12C293.725 231.861 293.767 237.471 294.004 237.522C294.241 237.573 297.555 228.367 296.848 226.42C296.266 224.821 292.08 226.198 292.08 226.198Z" fill="#F28585"/>
</g>
<path id="Path_61" fill-rule="evenodd" clip-rule="evenodd" d="M245.546 251.684C236.261 243.662 222.318 258.124 237.865 271.569C243.797 276.699 262.428 289.493 266.996 292.307C274.267 296.785 280.242 292.744 282.697 285.697C284.78 279.723 297.239 247.743 295.653 243.046C294.62 239.982 289.071 237.001 286.286 239.412C282.216 242.935 269.766 273.839 269.766 273.839C269.766 273.839 256.104 260.805 245.546 251.684Z" fill="#877BFF"/>
<path id="Path_62" fill-rule="evenodd" clip-rule="evenodd" d="M269.766 273.839C269.766 273.839 273.843 278.786 274.138 278.03C274.432 277.275 270.904 270.918 270.904 270.918L269.766 273.839Z" fill="black" fill-opacity="0.159856"/>
<path id="Path 41" d="M285.205 241.393C288.445 239.893 291.984 241.748 293.934 244.723" stroke="#5386BF" stroke-linecap="round"/>
</g>
<g id="Head_2">
<path id="Path_63" fill-rule="evenodd" clip-rule="evenodd" d="M205.742 242.431C205.742 242.431 211.08 241.203 211.266 232.628C211.451 224.053 211.321 221.126 211.321 221.126L223.977 220.918C223.977 220.918 224.104 230.474 224.107 233.931C224.111 241.457 229.812 243.49 229.812 243.49C229.812 243.49 229.339 251.718 218.684 252.306C210.365 252.765 205.742 242.431 205.742 242.431Z" fill="#F8C5C5"/>
<g id="Head1">
<path id="Path_64" fill-rule="evenodd" clip-rule="evenodd" d="M235.251 211.881L234.969 219.986C237.36 217.23 238.976 213.814 239.454 209.433L235.251 211.881Z" fill="url(#paint6_linear_6_1711)"/>
<path id="Path_65" fill-rule="evenodd" clip-rule="evenodd" d="M210.159 216.791C204.914 216.592 205.769 224.12 211.219 224.11C211.219 224.11 217.075 235.654 226.269 235.683C230.697 235.698 232.143 231.831 233.471 229.116C234.799 226.401 235.773 222.34 235.854 219.853C235.941 217.202 235.952 208.493 235.952 208.493L209.955 208.481L210.159 216.791Z" fill="#F8CFCF"/>
<path id="Path_66" fill-rule="evenodd" clip-rule="evenodd" d="M235.952 212.489H217.669C217.477 215.728 216.379 218.417 213.593 220.401C213.672 225.146 215.291 228.6 218.099 231.023C220.543 224.155 235.496 226.034 234.408 230.515C232.123 239.929 210.708 240.142 212.007 218.476C211.153 217.334 208.098 217.12 207.092 218.262C205.374 213.529 206.107 206.832 211.075 205.864C207.175 195.777 260.197 193.643 235.952 212.489Z" fill="#424242"/>
<path id="Path_67" d="M224.236 230.099C224.236 230.099 226.619 231.815 229.754 229.939" stroke="#CC6969" stroke-linecap="round"/>
<path id="Path 8_2" d="M210.977 221.089C211.03 219.881 210.655 218.922 209.398 218.729" stroke="#DE6767" stroke-linecap="round"/>
</g>
</g>
<g id="Body_2">
<path id="Path_68" fill-rule="evenodd" clip-rule="evenodd" d="M208.089 241L223.192 250.796L230.002 242.887C230.002 242.887 244.348 247.327 247.01 252.518C250.85 260.008 245.79 320.022 247.996 323.643C252.697 331.36 246.447 336.658 225.757 338.604C205.067 340.55 186.712 338.957 190.042 328.658C193.374 318.359 180.519 251.147 191.852 247.445C195.393 246.288 208.089 241 208.089 241Z" fill="#7367F0"/>
<path id="Path_69" fill-rule="evenodd" clip-rule="evenodd" d="M197.897 259.529C198.812 261.144 198.34 266.737 196.483 276.309C194.9 284.464 196.71 292.899 201.487 299.705L201.756 300.081C203.371 302.311 204.861 305.247 206.224 308.888C209.568 317.82 201.856 325.266 207.766 339.239L207.051 339.205C195.455 338.606 187.79 335.623 190.042 328.658C192.774 320.214 184.624 273.51 187.847 254.921C193.426 256.015 196.776 257.551 197.897 259.529Z" fill="black" fill-opacity="0.159856"/>
<path id="Path_70" fill-rule="evenodd" clip-rule="evenodd" d="M208.089 241L221.598 249.795C219.618 252.093 218.556 254.766 218.155 257.709C212.963 253.656 207.567 247.992 205.895 241.902L208.089 241Z" fill="#5E54C7"/>
<path id="Path_71" fill-rule="evenodd" clip-rule="evenodd" d="M224.26 249.566C226.544 251.109 228.366 253.839 229.85 256.944C231.628 253.376 232.309 248.664 232.309 243.639L230.078 242.759L224.26 249.566Z" fill="#5E54C7"/>
<path id="Path_72" fill-rule="evenodd" clip-rule="evenodd" d="M221.598 249.794L221.774 249.893C222.584 250.344 223.594 250.211 224.259 249.566C229.352 268.207 232.934 288.724 234.017 309.576L228.702 318.39L222.485 310.141C223.295 288.47 223.289 267.339 221.598 249.794Z" fill="#CBC6FF"/>
</g>
<g id="RArm_2">
<g id="Example Book Back">
<g id="Group 3">
<path id="Rectangle_16" d="M235.081 296.99C235.228 295.598 236.503 294.607 237.888 294.81L250.194 296.609C251.502 296.8 252.427 297.99 252.288 299.304L250.08 320.318C249.933 321.711 248.658 322.701 247.273 322.499L234.967 320.7C233.659 320.509 232.735 319.319 232.873 318.004L235.081 296.99Z" fill="#6182EC"/>
<path id="Rectangle_17" fill-rule="evenodd" clip-rule="evenodd" d="M236.549 296.567C236.7 295.128 238.053 294.128 239.473 294.407L252.34 296.93L261.145 296.783C262.624 296.758 263.792 298.033 263.637 299.504L261.432 320.486C261.302 321.724 260.268 322.671 259.023 322.692L249.616 322.849L236.318 320.241C235.066 319.995 234.208 318.834 234.342 317.565L236.549 296.567Z" fill="#96EFFA"/>
<path id="Rectangle_18" d="M238.872 301.487C238.97 300.561 239.835 299.913 240.751 300.081L246.657 301.161C247.48 301.312 248.048 302.071 247.96 302.902L247.708 305.297C247.611 306.223 246.746 306.871 245.829 306.703L239.924 305.622C239.101 305.472 238.533 304.713 238.621 303.881L238.872 301.487Z" fill="#74CFDB"/>
<path id="Rectangle_19" d="M251.356 297.631C251.402 297.192 251.796 296.873 252.235 296.919L252.752 296.974C253.191 297.02 253.51 297.414 253.464 297.853L250.916 322.097C250.87 322.536 250.476 322.855 250.037 322.809L249.52 322.755C249.08 322.708 248.762 322.315 248.808 321.875L251.356 297.631Z" fill="#EAEFFF"/>
<path id="Rectangle_20" d="M252.059 297.705C252.105 297.266 252.499 296.947 252.938 296.993L253.455 297.048C253.895 297.094 254.213 297.488 254.167 297.927L251.619 322.171C251.573 322.61 251.179 322.929 250.74 322.883L250.223 322.828C249.783 322.782 249.465 322.389 249.511 321.949L252.059 297.705Z" fill="#7AD2DD"/>
</g>
</g>
<path id="Path_73" fill-rule="evenodd" clip-rule="evenodd" d="M221.89 306.414C221.89 306.414 226.476 305.498 228.353 304.034C230.23 302.569 235.915 301.534 235.915 301.534L234.096 305.34C234.096 305.34 248.028 304.04 248.358 305.406C248.689 306.772 244.659 308.256 244.659 308.256C244.659 308.256 242.672 311.944 240.748 314.082C238.928 316.105 229.884 315.864 226.714 314.602C223.975 313.511 220.996 314.057 220.996 314.057L221.89 306.414Z" fill="#F8CFCF"/>
<path id="Path_74" fill-rule="evenodd" clip-rule="evenodd" d="M185.002 253.239C189.984 242.542 207.042 249.749 202.743 261.209C198.579 272.31 188.49 298.23 188.49 298.23C188.49 298.23 220.462 302.263 222.954 304.144C226.28 306.653 224.224 313.813 221.398 315.088C219.007 316.166 201.245 316.796 183.866 315.435C175.269 314.762 168.911 311.092 168.024 301.559C167.402 294.883 180.202 263.544 185.002 253.239Z" fill="#877BFF"/>
<path id="Path_75" fill-rule="evenodd" clip-rule="evenodd" d="M188.502 298.224C188.502 298.224 185.845 303.243 186.604 303.345C187.364 303.448 191.225 298.591 191.225 298.591L188.502 298.224Z" fill="black" fill-opacity="0.159856"/>
<path id="Path 40" d="M220.703 303.599C221.689 306.727 220.996 310.395 219.628 312.988" stroke="#5386BF" stroke-linecap="round"/>
</g>
</g>
<g id="Vase2">
<g id="Group 39">
<path id="Rectangle_21" fill-rule="evenodd" clip-rule="evenodd" d="M85.3628 443.346C93.6288 439.634 103.336 443.361 106.996 451.65L109.858 458.135C101.592 461.847 91.8847 458.12 88.2255 449.831L85.3628 443.346Z" fill="#02D3AF"/>
<path id="Path_76" fill-rule="evenodd" clip-rule="evenodd" d="M97.1732 447.302C105.423 453.172 110.772 459.714 113.237 466.926C115.714 474.173 116.729 486.321 116.268 503.347C116.261 503.611 116.467 503.83 116.729 503.837C116.99 503.844 117.208 503.637 117.215 503.373C117.679 486.241 116.656 473.996 114.132 466.614C111.597 459.197 106.121 452.5 97.7191 446.521C97.5055 446.369 97.21 446.421 97.0593 446.636C96.9085 446.852 96.9595 447.15 97.1732 447.302Z" fill="#02B596"/>
<path id="Rectangle_22" fill-rule="evenodd" clip-rule="evenodd" d="M155.488 439.32C147.354 435.494 137.659 439.022 133.886 447.182L130.673 454.133C138.807 457.959 148.502 454.431 152.275 446.271L155.488 439.32Z" fill="#02D3AF"/>
<g id="Group 88">
<path id="Rectangle_23" d="M90.4961 423.385C98.34 421.718 106.05 426.725 107.718 434.569L109.067 440.919C101.223 442.586 93.5131 437.579 91.8458 429.735L90.4961 423.385Z" fill="#02D3AF"/>
<path id="Path_77" fill-rule="evenodd" clip-rule="evenodd" d="M96.2643 428.452C102.31 432.672 106.399 437.223 108.544 442.099L108.676 442.406L108.809 442.729C111.007 448.185 114.645 462.475 119.705 485.545C119.761 485.802 120.014 485.966 120.27 485.91C120.525 485.854 120.686 485.599 120.63 485.342L120.003 482.496L119.271 479.202C114.7 458.761 111.418 446.281 109.41 441.715C107.187 436.662 102.981 431.981 96.8019 427.667C96.5865 427.517 96.2916 427.571 96.1431 427.787C95.9947 428.004 96.0489 428.301 96.2643 428.452Z" fill="#02B596"/>
</g>
<path id="Rectangle_24" fill-rule="evenodd" clip-rule="evenodd" d="M143.623 418.56C134.978 418.408 127.847 425.294 127.698 433.94L127.564 441.653C136.209 441.805 143.34 434.919 143.49 426.273L143.623 418.56Z" fill="#02D3AF"/>
<path id="Path_78" fill-rule="evenodd" clip-rule="evenodd" d="M137.951 421.662C132.39 429.822 128.326 437.699 125.763 445.293C123.203 452.874 120.65 464.581 118.1 480.424C118.058 480.684 118.233 480.93 118.491 480.972C118.75 481.014 118.993 480.837 119.035 480.577L119.348 478.651L119.563 477.353C121.93 463.186 124.296 452.6 126.659 445.601C129.193 438.095 133.217 430.295 138.731 422.203C138.879 421.985 138.825 421.688 138.609 421.539C138.394 421.389 138.099 421.444 137.951 421.662Z" fill="#02B596"/>
<g id="Group 87">
<path id="Path_79" fill-rule="evenodd" clip-rule="evenodd" d="M125.905 416.316C125.905 416.316 121.395 429.164 119.401 448.089C117.408 467.013 118.571 485.938 118.571 485.938L120.772 486.138C120.772 486.138 119.59 464.05 121.009 448.172C122.429 432.294 127.005 416.416 127.005 416.416L125.905 416.316Z" fill="#02B596"/>
<ellipse id="Oval_6" cx="128.201" cy="409.952" rx="7.26372" ry="11.1372" transform="rotate(14 128.201 409.952)" fill="#C2FFF4"/>
<ellipse id="Oval_7" cx="128.347" cy="410.625" rx="5.05298" ry="7.26093" transform="rotate(14 128.347 410.625)" fill="#02D3AF"/>
<path id="Path_80" fill-rule="evenodd" clip-rule="evenodd" d="M127.726 417.005L131.783 404.341C132.025 403.588 131.615 402.781 130.869 402.538C130.122 402.294 129.321 402.707 129.08 403.46L125.022 416.124C124.781 416.877 125.191 417.685 125.937 417.928C126.684 418.171 127.484 417.758 127.726 417.005Z" fill="url(#paint7_linear_6_1711)"/>
</g>
<g id="Group 87_2">
<path id="Path_81" fill-rule="evenodd" clip-rule="evenodd" d="M103.95 403.586C103.95 403.586 109.778 415.892 113.739 434.505C117.7 453.117 118.521 472.06 118.521 472.06L116.354 472.489C116.354 472.489 115.22 450.399 112.149 434.756C109.077 419.113 102.867 403.801 102.867 403.801L103.95 403.586Z" fill="#02B596"/>
<ellipse id="Oval_8" cx="7.26372" cy="11.1372" rx="7.26372" ry="11.1372" transform="matrix(-0.939693 0.34202 0.34202 0.939693 104.018 384.546)" fill="#C2FFF4"/>
<ellipse id="Oval_9" cx="5.05298" cy="7.26093" rx="5.05298" ry="7.26093" transform="matrix(-0.939693 0.34202 0.34202 0.939693 103.191 389.63)" fill="#02D3AF"/>
<path id="Path_82" fill-rule="evenodd" clip-rule="evenodd" d="M102.212 404.462L96.8523 392.291C96.5337 391.568 96.8566 390.722 97.5735 390.402C98.2905 390.082 99.13 390.409 99.4486 391.132L104.808 403.303C105.126 404.026 104.804 404.872 104.087 405.192C103.37 405.512 102.53 405.185 102.212 404.462Z" fill="url(#paint8_linear_6_1711)"/>
</g>
<path id="Path_83" fill-rule="evenodd" clip-rule="evenodd" d="M151.02 441.348C139.792 445.742 131.964 450.819 127.537 456.599C123.111 462.378 120.186 471.341 118.744 483.49C118.713 483.752 118.898 483.99 119.157 484.021C119.417 484.053 119.653 483.866 119.684 483.604C121.108 471.611 123.982 462.803 128.287 457.183C132.591 451.563 140.282 446.575 151.362 442.239C151.606 442.143 151.727 441.867 151.632 441.621C151.538 441.375 151.264 441.253 151.02 441.348Z" fill="#02B596"/>
</g>
<g id="Group 38">
<path id="Path 151" fill-rule="evenodd" clip-rule="evenodd" d="M120.93 476.595C115.599 457.598 94.5469 463.157 94.5469 463.157C94.5469 463.157 110.308 468.308 118.346 476.595H120.93Z" fill="#02B596"/>
<path id="Path 151_2" fill-rule="evenodd" clip-rule="evenodd" d="M120.875 473.677C126.206 454.68 143.975 457.458 143.975 457.458C143.975 457.458 133.183 466.329 123.458 473.677H120.875Z" fill="#02B596"/>
<path id="Path 151_3" fill-rule="evenodd" clip-rule="evenodd" d="M120.837 477.453C116.071 460.599 127.188 446.092 127.188 446.092C127.188 446.092 126.625 466.052 122.761 476.222L120.837 477.453Z" fill="#02B596"/>
<path id="Path 114" fill-rule="evenodd" clip-rule="evenodd" d="M116.174 473.677C114.067 467.587 111.971 459.082 110.4 450.837C118.163 453.959 120.657 466.397 118.163 473.677H116.174Z" fill="#02D3AF"/>
<g id="Group 89">
<path id="Rectangle_25" fill-rule="evenodd" clip-rule="evenodd" d="M101.022 469.762C100.919 468.584 101.847 467.571 103.03 467.571H133.682C134.865 467.571 135.793 468.584 135.69 469.762L129.783 537.355C129.692 538.396 128.82 539.195 127.775 539.195H108.937C107.891 539.195 107.019 538.396 106.928 537.355L101.022 469.762Z" fill="#7569EC"/>
<mask id="mask1_6_1711" style="mask-type:luminance" maskUnits="userSpaceOnUse" x="101" y="467" width="35" height="73">
<path id="Rectangle_26" fill-rule="evenodd" clip-rule="evenodd" d="M101.022 469.762C100.919 468.584 101.847 467.571 103.03 467.571H133.682C134.865 467.571 135.793 468.584 135.69 469.762L129.783 537.355C129.692 538.396 128.82 539.195 127.775 539.195H108.937C107.891 539.195 107.019 538.396 106.928 537.355L101.022 469.762Z" fill="white"/>
</mask>
<g mask="url(#mask1_6_1711)">
<path id="Rectangle_27" fill-rule="evenodd" clip-rule="evenodd" d="M96.4082 463.099H109.353C101.331 493.552 125.478 514.488 109.353 544.941H96.4082V463.099Z" fill="#8175FF"/>
</g>
</g>
</g>
</g>
<g id="Chair4_2">
<path id="Path 25" fill-rule="evenodd" clip-rule="evenodd" d="M678.746 449.882L667.303 540.29L673.302 540.21L684.745 450.728L678.746 449.882Z" fill="#91D6FF"/>
<path id="Path_84" fill-rule="evenodd" clip-rule="evenodd" d="M645.447 449.882L634.004 540.29L640.003 540.21L651.446 450.728L645.447 449.882Z" fill="#91D6FF"/>
<path id="Path_85" fill-rule="evenodd" clip-rule="evenodd" d="M718.493 449.882L729.936 540.29L723.936 540.21L712.493 450.728L718.493 449.882Z" fill="#BFE7FF"/>
<path id="Path_86" fill-rule="evenodd" clip-rule="evenodd" d="M641.07 464.093C635.854 464.093 631.625 459.864 631.625 454.648C631.625 449.431 635.854 445.203 641.07 445.203H678.833C684.554 445.203 689.336 440.849 689.872 435.153L695.91 370.96C696.445 365.264 701.227 360.91 706.949 360.91H730.649C737.108 360.91 742.199 366.408 741.705 372.848L735.48 453.855C735.036 459.632 730.219 464.093 724.425 464.093H641.07Z" fill="#91D6FF"/>
<path id="Combined Shape_2" fill-rule="evenodd" clip-rule="evenodd" d="M631.627 454.567C631.679 454.568 631.731 454.569 631.783 454.569H714.913C720.706 454.569 725.523 450.109 725.968 444.332L732.188 363.614C732.256 362.734 732.219 361.872 732.089 361.038C731.537 360.954 730.972 360.91 730.395 360.91H706.807C701.086 360.91 696.305 365.262 695.768 370.957L689.735 434.916C689.197 440.611 684.416 444.963 678.696 444.963H641.046C635.843 444.963 631.625 449.181 631.625 454.384C631.625 454.445 631.626 454.506 631.627 454.567Z" fill="#BFE7FF"/>
</g>
<g id="Wom2.4">
<g id="LLeg_3">
<path id="Path_87" fill-rule="evenodd" clip-rule="evenodd" d="M643.11 511.415C643.11 511.415 648.356 522.01 644.055 525.349C639.748 528.688 628.372 534.946 628.372 534.946L658.512 533.052L651.812 509.944L643.11 511.415Z" fill="url(#paint9_linear_6_1711)"/>
<path id="Path_88" fill-rule="evenodd" clip-rule="evenodd" d="M655.525 521.003C654.576 521.455 656.136 525.712 652.799 525.413C649.463 525.115 647.368 520.714 644.908 521C642.447 521.285 640.885 525.717 636.2 528.803C631.517 531.89 624.572 535.572 625.037 538.675C625.502 541.779 636.431 542.61 641.968 541.582C647.505 540.556 650.089 538.33 653.681 538.507C657.273 538.685 659.531 538.245 660.657 535.939C661.782 533.632 656.619 520.48 655.525 521.003Z" fill="#EEDFE8"/>
<path id="Path_89" fill-rule="evenodd" clip-rule="evenodd" d="M655.258 535.167L654.951 535.149C650.499 534.774 647.445 537.574 643.208 538.363C638.97 539.153 627.795 539.426 626.01 536.775C625.925 536.65 625.847 536.521 625.774 536.391C625.174 537.128 624.892 537.917 625.037 538.836C625.502 541.789 636.432 542.58 641.969 541.603C647.506 540.626 650.091 538.507 653.683 538.676L654.322 538.7C657.545 538.788 659.601 538.294 660.66 536.232C660.917 535.729 660.859 534.649 660.601 533.283C659.098 534.311 657.202 535.226 655.258 535.167Z" fill="#EC7AA5"/>
<path id="Path_90" fill-rule="evenodd" clip-rule="evenodd" d="M688.511 418.032C679.387 418.439 628.601 429.672 619.375 431.58C610.148 433.488 602.347 443.814 609.383 455.772C617.285 469.194 637.675 507.314 642.626 515.907C645.076 520.16 657.437 517.775 654.534 510.636C649.121 497.329 646.607 463.898 632.807 451.709C632.807 451.709 679.217 459.786 699.264 450.534C713.833 443.808 710.537 417.047 688.511 418.032Z" fill="#413C75"/>
</g>
<g id="LArm_3">
<path id="Path_91" fill-rule="evenodd" clip-rule="evenodd" d="M624.857 361.074C624.857 361.074 624.961 355.65 622.364 351.77C619.766 347.89 619.663 343.768 617.698 343.903C615.732 344.038 617.679 353.618 617.679 353.618C617.679 353.618 615.185 352.665 613.393 351.46C611.602 350.255 606.169 344.314 604.899 345.367C602.747 347.16 606.214 357.279 608.102 359.302C609.997 361.326 619.346 366.98 619.346 366.98L646.881 394.719L650.998 379.993L624.857 361.074Z" fill="url(#paint10_linear_6_1711)"/>
<path id="Path_92" fill-rule="evenodd" clip-rule="evenodd" d="M679.932 358.625C675.687 368.47 667.915 386.556 664.711 391.951C660.696 398.708 654.365 401.685 646.951 396.672C645.4 395.623 640.946 391.954 640.946 391.954C641.605 385.532 644.004 380.164 648.14 375.849L650.949 378.172C650.949 378.172 658.915 357.752 665.323 345.923C670.872 335.689 686.393 343.659 679.932 358.625Z" fill="#EA5455"/>
<path id="Path_93" fill-rule="evenodd" clip-rule="evenodd" d="M650.867 378.183C650.867 378.183 648.728 385.44 648.228 385.019C647.727 384.599 648.61 376.286 648.61 376.286L650.867 378.183Z" fill="black" fill-opacity="0.159856"/>
</g>
<g id="Head_3">
<path id="Path_94" fill-rule="evenodd" clip-rule="evenodd" d="M698.278 320.411V329.123L704.675 323.972C704.675 323.972 706.642 315.626 708.241 309.427C709.244 305.539 711.687 292.384 701.851 293C693.793 278.796 670.327 287.587 670.14 304.94C669.916 325.811 670.099 333.937 670.099 333.937C683.369 334.698 690.837 332.78 698.278 320.411Z" fill="#422851"/>
<path id="Path_95" fill-rule="evenodd" clip-rule="evenodd" d="M704.814 336.997C704.814 336.997 698.864 335.6 698.657 325.85C698.451 316.099 698.596 312.77 698.596 312.77L685.488 312.534C685.488 312.534 685.345 323.401 685.343 327.332C685.337 336.889 678.309 337.672 678.309 337.672C678.309 337.672 679.51 345.558 691.388 346.225C700.661 346.748 704.814 336.997 704.814 336.997Z" fill="url(#paint11_linear_6_1711)"/>
<path id="Path_96" fill-rule="evenodd" clip-rule="evenodd" d="M701.65 307.901C707.498 307.675 706.544 316.235 700.47 316.224C700.47 316.224 696.942 328.384 684.692 328.384C674.744 328.384 674.097 314.211 674.007 311.384C673.91 308.369 673.898 298.465 673.898 298.465L701.878 298.452L701.65 307.901Z" fill="url(#paint12_linear_6_1711)"/>
<path id="Path_97" fill-rule="evenodd" clip-rule="evenodd" d="M702.103 307.845C699.68 308.245 699.974 309.849 699.315 309.709C695.969 308.997 682.425 309.936 680.681 302.488C678.511 307.141 677.98 308.285 673.202 309.534V295.899L703.424 293C703.424 293 702.955 307.704 702.103 307.845Z" fill="#422851"/>
<path id="Path_98" d="M687.055 320.215C687.055 320.215 684.137 322.685 680.758 320.372" stroke="#F77B7B" stroke-width="1.5" stroke-linecap="round"/>
<path id="Path_99" d="M685.129 323.076C684.221 323.494 683.347 323.525 682.567 323.107" stroke="#F49494" stroke-linecap="round"/>
<path id="Path 8_3" d="M701.055 312.505C700.995 311.132 701.414 310.041 702.814 309.822" stroke="#F77B7B" stroke-linecap="round"/>
</g>
<g id="Body_3">
<path id="Path_100" fill-rule="evenodd" clip-rule="evenodd" d="M703.484 336C696.016 340.574 687.382 342.251 679.345 337.284C666.23 363.145 662.961 394.002 666.116 428.106C685.241 435.678 701.315 434.189 715 425.534L703.484 336Z" fill="#FFE4F4"/>
<g id="RLeg_2">
<path id="Path_101" fill-rule="evenodd" clip-rule="evenodd" d="M610.415 511.84C610.415 511.84 610.573 524.311 600.297 528.974C590.028 533.635 582.711 533.355 583.643 536.959C584.574 540.563 611.304 540.418 613.8 537.599C615.928 535.201 620.554 512.872 621.828 514.579L610.415 511.84Z" fill="url(#paint13_linear_6_1711)"/>
<path id="Path_102" fill-rule="evenodd" clip-rule="evenodd" d="M617.879 529.452C616.304 528.319 614.98 534.853 610.703 533.036C606.425 531.219 609.798 525.213 607.106 524.105C604.414 522.998 599.216 528.953 592.312 530.401C585.408 531.848 579.803 533.114 578.21 535.801C576.838 538.111 578.21 538.849 578.21 538.849C578.21 538.849 584.856 542.168 588.986 542.899C594.986 543.96 612.325 544.667 614.225 542.732C615.392 541.545 618.667 530.019 617.879 529.452Z" fill="#EEDFE8"/>
<path id="Path_103" fill-rule="evenodd" clip-rule="evenodd" d="M577.835 536.073C576.533 538.196 578.587 539.3 578.833 539.422L579.824 539.844C581.704 540.626 585.946 542.302 589.081 542.901C594.829 544 612.628 544.651 614.543 542.762C614.879 542.43 615.295 541.217 615.697 539.641L614.476 539.774C608.598 540.397 595.477 541.524 589.002 539.998C583.254 538.644 580.108 536.417 578.673 535.117C578.324 535.416 578.042 535.734 577.835 536.073Z" fill="#EC7AA5"/>
<path id="Path_104" fill-rule="evenodd" clip-rule="evenodd" d="M717.102 414.177C717.102 414.177 730.368 442.192 711.725 451.812C693.696 461.115 639.724 450.112 639.724 450.112C639.724 450.112 640.689 457.877 639.724 464.802C637.206 482.889 625.226 513.023 622.692 516.809C619.187 522.046 608.51 518.097 608.309 513.737C608.107 509.377 616.357 453.693 617.612 443.075C618.86 432.456 622.8 430.913 634.309 428.01C636.953 427.343 668.22 419.573 671.084 419.8C695.695 421.746 717.102 414.177 717.102 414.177Z" fill="#524D87"/>
<path id="Path_105" fill-rule="evenodd" clip-rule="evenodd" d="M702.56 448.921C684.711 450.921 637.456 446.798 635.558 448.671C633.746 450.46 634.049 481.575 629.984 499.585L630.602 497.884C634.425 487.267 638.394 474.354 639.724 464.802C640.689 457.877 639.724 450.112 639.724 450.112L641.901 450.533C652.16 452.46 695.86 459.999 711.725 451.812C720.322 447.376 723.83 440.006 722.249 429.703C719.527 441.349 712.964 447.755 702.56 448.921Z" fill="white" fill-opacity="0.056108"/>
</g>
<path id="Path_106" fill-rule="evenodd" clip-rule="evenodd" d="M703.157 336.021C690.788 376.537 683.371 433.979 721.999 423.986C701.48 386.206 729.375 369.202 723.052 349.676C720.89 343 703.318 335.497 703.157 336.021Z" fill="#EA5455"/>
<path id="Path_107" fill-rule="evenodd" clip-rule="evenodd" d="M717.107 352.846C703.128 354.955 714.652 379.362 710.037 383.039C705.423 386.716 697.391 387.113 696.525 389.359C694.785 393.874 703.199 405.271 721.767 423.551L722 423.986C704.125 391.076 722.988 373.931 723.969 357.151C721.898 353.903 719.61 352.468 717.107 352.846Z" fill="black" fill-opacity="0.159856"/>
<path id="Path_108" fill-rule="evenodd" clip-rule="evenodd" d="M680 337C675.28 348.838 673.011 358.127 670.894 375.503C669.129 389.975 670.013 419.84 670.013 419.84L664.18 420.987C664.18 420.987 660.01 374.848 661.404 368.907C663.744 358.938 665.329 353.113 668.418 344C670.12 338.998 680 337 680 337Z" fill="#EA5455"/>
</g>
<g id="RArm_3">
<path id="Path_109" fill-rule="evenodd" clip-rule="evenodd" d="M700.56 382.017C700.56 382.017 692.944 374.392 690.307 373.507C687.669 372.622 673.222 371.559 673.32 373.559C673.431 375.701 682.727 375.578 683.587 376.632C684.446 377.685 685.642 385.888 688.891 386.697C692.134 387.506 698.857 389.9 698.857 389.9L728.781 405.362L725.593 389.901L700.56 382.017Z" fill="url(#paint14_linear_6_1711)"/>
<path id="Path_110" fill-rule="evenodd" clip-rule="evenodd" d="M723.48 349.731C732.557 362.542 740.307 382.056 743.282 389.664C746.256 397.272 743.256 408.747 730.175 406.494C728.618 406.226 726.084 405.24 726.084 405.24C721.275 398.647 720.431 392.987 722.226 387.947L723.918 388.661C723.918 388.661 710.917 365.617 707.742 359.439C702.44 349.122 715.485 338.444 723.48 349.731Z" fill="#EA5455"/>
<path id="Path_111" fill-rule="evenodd" clip-rule="evenodd" d="M723.917 388.661C723.917 388.661 730.521 391.887 729.69 390.468C728.86 389.049 721.402 384.182 721.402 384.182L723.917 388.661Z" fill="black" fill-opacity="0.159856"/>
</g>
</g>
<g id="Example Ipad1">
<g id="Group 3_2">
<path id="Rectangle_28" fill-rule="evenodd" clip-rule="evenodd" d="M585.967 346.044C585.638 344.724 586.441 343.387 587.762 343.058L611.231 337.206C612.552 336.877 613.889 337.68 614.218 339.001L622.74 373.181C623.069 374.501 622.266 375.838 620.946 376.168L597.476 382.019C596.156 382.348 594.818 381.545 594.489 380.225L585.967 346.044Z" fill="url(#paint15_linear_6_1711)"/>
<path id="Rectangle_29" fill-rule="evenodd" clip-rule="evenodd" d="M586.883 346.595C586.554 345.275 587.358 343.938 588.678 343.608L612.147 337.757C613.468 337.428 614.805 338.231 615.134 339.552L623.656 373.732C623.985 375.052 623.182 376.389 621.862 376.718L598.392 382.57C597.072 382.899 595.734 382.096 595.405 380.775L586.883 346.595Z" fill="#518DF8"/>
<path id="Rectangle_30" d="M587.884 346.896C587.588 345.708 588.311 344.504 589.499 344.208L611.571 338.705C612.76 338.408 613.963 339.131 614.26 340.32L621.965 371.223C622.261 372.411 621.538 373.615 620.349 373.911L598.277 379.414C597.089 379.71 595.885 378.987 595.589 377.799L587.884 346.896Z" fill="white"/>
</g>
</g>
<g id="Group 26_10">
<g id="Group 25">
<path id="Rectangle_31" fill-rule="evenodd" clip-rule="evenodd" d="M383.203 395.871H394.62V540.751H383.203L383.203 395.871Z" fill="#E9E9E9"/>
<path id="Rectangle_32" fill-rule="evenodd" clip-rule="evenodd" d="M271.375 400.634L361.564 400.634V427.542H286.403V540.751H271.375V400.634Z" fill="#D3D3D3"/>
<path id="Rectangle_33" fill-rule="evenodd" clip-rule="evenodd" d="M270.791 400.634H278.791V540.751H270.791V400.634Z" fill="#DBDBDB"/>
</g>
<g id="Group 25_2">
<path id="Rectangle_34" fill-rule="evenodd" clip-rule="evenodd" d="M663.43 400.634H679.43V540.751H663.43V400.634Z" fill="#E9E9E9"/>
<path id="Rectangle_35" fill-rule="evenodd" clip-rule="evenodd" d="M663.43 395.871H673.43V540.751H663.43L663.43 395.871Z" fill="#DBDBDB"/>
<path id="Rectangle_36" fill-rule="evenodd" clip-rule="evenodd" d="M531.006 400.634L670.006 400.634V427.19H549.713V540.751H531.006V400.634Z" fill="#D3D3D3"/>
<path id="Rectangle_37" fill-rule="evenodd" clip-rule="evenodd" d="M282.59 395.871L531.479 395.871V436.101H282.59V395.871Z" fill="#DBDBDB"/>
<path id="Rectangle_38" fill-rule="evenodd" clip-rule="evenodd" d="M525.771 400.634H537.188V436.101H525.771V400.634Z" fill="#E9E9E9"/>
<path id="Rectangle_39" fill-rule="evenodd" clip-rule="evenodd" d="M531.041 400.634H540.041V540.751H531.041V400.634Z" fill="#DBDBDB"/>
<path id="Rectangle_40" fill-rule="evenodd" clip-rule="evenodd" d="M532.477 403.015C532.477 399.07 535.675 395.871 539.62 395.871L684.746 395.871C688.691 395.871 691.889 399.07 691.889 403.015C691.889 406.96 688.691 410.158 684.746 410.158H539.62C535.675 410.158 532.477 406.96 532.477 403.015Z" fill="#E9E9E9"/>
<path id="Rectangle_41" fill-rule="evenodd" clip-rule="evenodd" d="M279.736 398.729H528.626V413.016H279.736V398.729Z" fill="#E9E9E9"/>
<path id="Rectangle_42" fill-rule="evenodd" clip-rule="evenodd" d="M258.805 403.015C258.805 399.07 262.003 395.871 265.948 395.871H542.412C546.358 395.871 549.556 399.07 549.556 403.015C549.556 406.96 546.358 410.158 542.412 410.158H265.948C262.003 410.158 258.805 406.96 258.805 403.015Z" fill="#DBDBDB"/>
</g>
</g>
<g id="Men2.8">
<g id="RLeg_3">
<path id="Path_112" fill-rule="evenodd" clip-rule="evenodd" d="M303.386 505.181L295.488 530.824L312.055 531.425C312.055 531.425 310.184 522.653 312.855 514.43C314.998 507.829 316.746 504.535 316.746 504.535L303.386 505.181Z" fill="#92691F"/>
<path id="Path_113" fill-rule="evenodd" clip-rule="evenodd" d="M311.622 524.378C311.622 524.378 317.945 530.238 324.026 532.409C330.107 534.58 332.435 534.604 332.868 535.421L332.947 535.577C334.198 538.159 333.439 541.589 319.578 541.779C316.209 541.825 312.706 539.868 303.408 537.797L302.736 541.417C297.532 541.348 294.496 540.528 293.627 538.956C292.317 536.605 294.543 525.011 296.079 524.791C297.614 524.571 297.918 529.287 302.041 529.39C306.17 529.493 311.622 524.378 311.622 524.378Z" fill="#391B0B"/>
<path id="Combined Shape_3" fill-rule="evenodd" clip-rule="evenodd" d="M323.88 532.356C323.692 532.519 323.466 532.691 323.2 532.854C322.275 533.421 320.883 533.872 319.01 533.445C318.059 533.227 316.998 532.619 315.957 531.852C314.91 531.082 313.86 530.137 312.928 529.221C311.994 528.305 311.175 527.416 310.589 526.755C310.296 526.425 310.061 526.152 309.899 525.961C309.874 525.931 309.85 525.903 309.828 525.877C309.966 525.771 310.097 525.668 310.222 525.568C310.24 525.59 310.26 525.613 310.281 525.638C310.44 525.826 310.673 526.096 310.963 526.424C311.544 527.078 312.355 527.959 313.278 528.865C314.201 529.771 315.232 530.699 316.253 531.449C317.279 532.204 318.272 532.763 319.122 532.957C320.852 533.352 322.112 532.935 322.938 532.428C323.087 532.337 323.221 532.243 323.342 532.15C323.522 532.222 323.701 532.291 323.88 532.356Z" fill="#81411E"/>
<path id="Path_114" fill-rule="evenodd" clip-rule="evenodd" d="M265.629 424.913C265.629 424.913 331.422 430.174 340.487 430.455C349.552 430.735 356.478 443.674 349.458 455.617C341.574 469.024 320.153 507.621 315.965 516.545C312.423 524.09 296.325 520.998 299.222 509.473C302.681 495.679 309.126 464.733 322.895 452.558C322.895 452.558 289.408 464.699 270.546 452.924C259.785 446.207 265.629 424.913 265.629 424.913Z" fill="#7A3636"/>
<path id="Path_115" fill-rule="evenodd" clip-rule="evenodd" d="M349.458 455.617L348.432 457.376C344.442 464.272 337.999 475.923 331.848 487.27L332.171 486.231C336.929 471.092 344.32 453.258 347.48 447.817C348.588 445.91 350.096 443.966 352.004 441.985C352.814 446.14 352.199 450.954 349.458 455.617Z" fill="white" fill-opacity="0.192499"/>
</g>
<g id="LLeg_4">
<path id="Path_116" fill-rule="evenodd" clip-rule="evenodd" d="M374.987 505.48C374.987 505.48 379.385 525.038 385.11 527.131C387.314 527.937 368.218 530.238 368.218 530.238L363.424 511.474L374.987 505.48Z" fill="#92691F"/>
<path id="Path_117" fill-rule="evenodd" clip-rule="evenodd" d="M365.46 523.631L365.141 540.142L371.723 540.192L371.79 536.48C371.79 536.48 376.92 539.556 380.394 540.638C385.066 542.097 403.525 541.333 405.61 539.11C407.696 536.877 407.741 533.324 403.459 532.887C399.178 532.451 392.098 531.151 389.05 528.818C385.363 526.007 383.96 521.547 382.889 521.543C381.25 521.537 381.123 526.784 372.804 526.858C369.637 526.886 365.46 523.631 365.46 523.631Z" fill="#391B0B"/>
<path id="Path_118" fill-rule="evenodd" clip-rule="evenodd" d="M381.186 523.015C381.186 523.015 385.431 529.639 387.954 530.598C390.478 531.547 392.512 530.482 392.512 530.482C392.512 530.482 388.16 528.748 386.479 525.722C382.672 518.867 381.91 522.354 381.186 523.015Z" fill="#81411E"/>
<path id="Path_119" fill-rule="evenodd" clip-rule="evenodd" d="M271.075 430.228C271.075 430.228 270.983 451.248 285.106 456.532C299.23 461.815 345.22 459.827 345.22 459.827C345.22 459.827 359.814 513.525 363.311 518.755C366.808 523.986 383.39 524.527 382.493 512.481C381.59 500.435 375.119 455.713 373.867 445.107C372.622 434.5 368.69 431.96 357.208 430.06C353.172 429.392 354.885 428.322 328.941 427.107C323.369 426.846 314.02 428.932 305.429 429.877C296.837 430.822 271.075 430.228 271.075 430.228Z" fill="#7A3636"/>
<path id="Path_120" fill-rule="evenodd" clip-rule="evenodd" d="M316.977 430.681L316.977 428.24L318.127 428.068C322.309 427.447 326.111 426.975 328.94 427.107L331.923 427.252C354.756 428.407 353.333 429.419 357.207 430.06L357.953 430.186C368.616 432.033 372.474 434.614 373.78 444.419L374.146 447.37C375.874 460.962 381.644 501.158 382.493 512.481C382.56 513.387 382.529 514.222 382.411 514.99L379.05 498.062C374.096 472.966 371.32 458.096 370.722 453.452L370.597 452.487C369.478 444.244 366.55 434.016 357.101 434.683L356.285 434.752C349.632 435.258 337.016 433.982 318.436 430.923L316.977 430.681Z" fill="white" fill-opacity="0.192499"/>
<ellipse id="Oval_10" cx="384.32" cy="446.912" rx="3.77561" ry="6.61391" transform="rotate(13 384.32 446.912)" fill="white" fill-opacity="0.192499"/>
</g>
<g id="RArm_4">
<path id="Path_121" fill-rule="evenodd" clip-rule="evenodd" d="M281.263 402.315C281.263 402.315 296.654 405.878 296.498 407.277C296.345 408.682 289.569 408.898 289.569 408.898C289.569 408.898 302.095 416.987 301.098 418.565C300.101 420.143 291.934 421.921 288.545 420.648C285.154 419.375 276.367 410.113 276.367 410.113L281.263 402.315Z" fill="url(#paint16_linear_6_1711)"/>
<path id="Path_122" fill-rule="evenodd" clip-rule="evenodd" d="M281.402 356.716C276.247 363.079 258.669 382.513 258.669 382.513C258.669 382.513 276.247 395.033 280.673 397.681C287.931 402.021 280.55 413.537 275.227 412.258C268.014 410.52 249.806 397.959 241.25 392.875C232.695 387.792 235.968 379.585 242.298 372.095C247.161 366.343 257.731 354.557 265.168 344.211C272.568 333.917 291.406 344.37 281.402 356.716Z" fill="#EA5455"/>
<path id="Path 15" fill-rule="evenodd" clip-rule="evenodd" d="M258.67 382.513C258.67 382.513 253.721 387.281 254.235 387.65C254.75 388.019 260.713 383.979 260.713 383.979L258.67 382.513Z" fill="black" fill-opacity="0.159856"/>
</g>
<g id="Head_4">
<path id="Path_123" fill-rule="evenodd" clip-rule="evenodd" d="M312.093 310.007C316.416 310.481 316.109 318.089 310.847 318.486C309.771 325.821 305.936 329.315 301.259 329.719L301.518 340.813L280.833 340.801C280.833 340.801 286.658 332.964 286.368 322.235C286.077 311.506 286.562 301.427 286.562 301.427L313.355 301.908L312.093 310.007Z" fill="url(#paint17_linear_6_1711)"/>
<path id="Path_124" fill-rule="evenodd" clip-rule="evenodd" d="M303.63 289.313C319.567 293.336 312.992 310.328 312.992 310.328C308.177 309.671 303.543 315.514 301.786 321.244C296.705 326.467 290.124 326.458 285.748 323.416C285.748 323.416 279.727 304.793 281.696 298.592C283.666 292.391 289.104 285.647 303.63 289.313Z" fill="#2C272E"/>
</g>
<g id="Body_4">
<path id="Path_125" fill-rule="evenodd" clip-rule="evenodd" d="M265.957 343.288C264.526 345.724 263.501 355.536 265.957 394.408C267.229 414.537 261.819 434.376 263.217 443.109C264.615 451.843 274.223 452.886 274.223 452.886L279.826 434.657L282.462 452.886C282.462 452.886 322.196 449.171 325.678 440.125C329.167 431.06 324.785 409.75 323.743 389.683C322.697 369.537 323.482 348.858 321.556 345.724C317.713 339.468 307.821 336.546 301.682 335.61C293.891 334.422 283.833 334.377 277.854 336.273C271.875 338.168 267.388 340.852 265.957 343.288Z" fill="#EA5455"/>
<path id="Path_126" fill-rule="evenodd" clip-rule="evenodd" d="M306.387 357.131C309.523 380.265 313.716 396.498 318.966 405.83C321.137 409.688 323.342 411.279 325.582 410.602L325.05 405.475C324.52 400.287 324.017 394.942 323.744 389.683C323.553 386.016 323.424 382.331 323.327 378.737L306.387 357.131Z" fill="black" fill-opacity="0.159856"/>
<path id="Path_127" fill-rule="evenodd" clip-rule="evenodd" d="M277.854 336.273C277.492 336.388 277.141 336.507 276.802 336.631C285.387 340.374 299.562 339.874 307.268 336.825C305.26 336.258 303.335 335.862 301.682 335.61C293.891 334.422 283.834 334.377 277.854 336.273Z" fill="#E5AA41"/>
</g>
<g id="LArm_4">
<path id="Path_128" fill-rule="evenodd" clip-rule="evenodd" d="M383.153 377.168C383.153 377.168 395.938 368.633 398.197 366.919C400.449 365.212 403.276 352.268 401.524 350.452C400.678 349.573 394.282 355.486 393.141 356.278C392.007 357.062 386.208 360.556 386.208 360.556C386.208 360.556 387.849 350.648 386.436 349.849C385.391 349.268 383.3 351.818 383.021 354.513C382.741 357.208 379.834 360.723 379.459 364.813C379.289 366.599 377.53 370.013 377.53 370.013L383.153 377.168Z" fill="url(#paint18_linear_6_1711)"/>
<path id="Path_129" fill-rule="evenodd" clip-rule="evenodd" d="M307.013 360.801C311.912 370.981 320.232 385.863 324.802 394.589C330.21 404.915 336.654 409.29 349.651 401.628C360.536 395.211 376.232 384.89 384.342 379.281C391.889 374.061 382.968 361.175 375.838 365.529C366.38 371.297 342.192 382.728 342.192 382.728C342.192 382.728 329.745 359.991 324.577 349.075C318.003 335.201 297.532 341.101 307.013 360.801Z" fill="#EA5455"/>
<path id="Path_130" fill-rule="evenodd" clip-rule="evenodd" d="M342.193 382.728C342.193 382.728 344.469 390.744 345.006 390.427C345.543 390.111 344.629 381.579 344.629 381.579L342.193 382.728Z" fill="black" fill-opacity="0.159856"/>
</g>
</g>
<g id="Chair8">
<path id="Path_131" fill-rule="evenodd" clip-rule="evenodd" d="M291.767 461.221L280.324 542.179L286.324 542.1L297.767 462.067L291.767 461.221Z" fill="#BFE7FF"/>
<path id="Path_132" fill-rule="evenodd" clip-rule="evenodd" d="M329.928 461.221L341.371 542.179L335.372 542.1L323.929 462.067L329.928 461.221Z" fill="#91D6FF"/>
<path id="Path_133" fill-rule="evenodd" clip-rule="evenodd" d="M256.882 461.221L245.439 542.179L251.439 542.1L262.882 462.067L256.882 461.221Z" fill="#BFE7FF"/>
<path id="Path_134" fill-rule="evenodd" clip-rule="evenodd" d="M334.305 465.983C339.521 465.983 343.75 461.754 343.75 456.538C343.75 451.321 339.521 447.092 334.305 447.092H296.542C290.821 447.092 286.039 442.739 285.503 437.043L279.465 372.85C278.93 367.153 274.148 362.8 268.426 362.8H244.726C238.267 362.8 233.176 368.298 233.67 374.737L239.895 455.744C240.339 461.522 245.156 465.983 250.95 465.983H334.305Z" fill="#BFE7FF"/>
<path id="Combined Shape_4" fill-rule="evenodd" clip-rule="evenodd" d="M343.748 456.457C343.696 456.458 343.644 456.458 343.592 456.458H291.609C285.816 456.458 280.999 451.998 280.554 446.222L274.246 364.363C277.19 366.121 279.264 369.21 279.607 372.847L285.64 436.806C286.178 442.501 290.959 446.853 296.679 446.853H334.329C339.532 446.853 343.75 451.071 343.75 456.274C343.75 456.335 343.749 456.396 343.748 456.457Z" fill="#91D6FF"/>
</g>
<g id="Front Laptop3">
<path id="Rectangle_43" fill-rule="evenodd" clip-rule="evenodd" d="M557.98 394.543C557.98 394.13 557.646 393.796 557.234 393.796H473.098C472.685 393.796 472.351 394.13 472.351 394.543V395.64C472.351 396.052 472.685 396.386 473.098 396.386H557.234C557.646 396.386 557.98 396.052 557.98 395.64V394.543Z" fill="url(#paint19_linear_6_1711)"/>
<path id="Rectangle_44" fill-rule="evenodd" clip-rule="evenodd" d="M557.988 394.543C557.988 394.13 557.654 393.796 557.242 393.796H524.915C524.503 393.796 524.168 394.13 524.168 394.543V395.64C524.168 396.052 524.503 396.386 524.915 396.386H557.242C557.654 396.386 557.988 396.052 557.988 395.64V394.543Z" fill="#518DF8"/>
<path id="Rectangle_45" fill-rule="evenodd" clip-rule="evenodd" d="M564.092 358.353C564.367 356.201 562.691 354.296 560.521 354.296H504.71C502.898 354.296 501.369 355.642 501.139 357.439L496.988 389.852C496.712 392.004 498.389 393.909 500.559 393.909H556.37C558.181 393.909 559.711 392.563 559.941 390.766L564.092 358.353Z" fill="#518DF8"/>
<path id="Rectangle_46" fill-rule="evenodd" clip-rule="evenodd" d="M562.393 358.353C562.668 356.201 560.991 354.296 558.822 354.296H504.19C502.379 354.296 500.849 355.642 500.619 357.439L496.468 389.852C496.193 392.004 497.869 393.909 500.039 393.909H554.671C556.482 393.909 558.011 392.563 558.242 390.766L562.393 358.353Z" fill="url(#paint20_linear_6_1711)"/>
<path id="Rectangle_47" d="M560.443 359.821C560.691 357.884 559.182 356.17 557.229 356.17H505.471C503.84 356.17 502.464 357.381 502.257 358.999L498.517 388.236C498.269 390.173 499.778 391.887 501.731 391.887H553.489C555.12 391.887 556.496 390.675 556.703 389.058L560.443 359.821Z" fill="white"/>
</g>
<g id="Wom3.8">
<g id="RArm_5">
<path id="Path_135" fill-rule="evenodd" clip-rule="evenodd" d="M423.644 404.22C423.644 404.22 437.245 407.393 437.107 408.638C436.972 409.89 430.984 410.082 430.984 410.082C430.984 410.082 442.053 417.285 441.172 418.69C440.291 420.095 433.074 421.678 430.079 420.545C427.082 419.412 419.317 411.164 419.317 411.164L397.53 399.463L404.812 389.858L423.644 404.22Z" fill="url(#paint21_linear_6_1711)"/>
<path id="Path_136" fill-rule="evenodd" clip-rule="evenodd" d="M423.766 363.617C419.21 369.282 403.677 386.588 403.677 386.588L406.743 388.889L396.771 400.985C396.771 400.985 390.403 397.083 388.284 395.815C380.723 391.288 383.616 383.98 389.21 377.311C393.507 372.189 402.848 361.695 409.42 352.482C415.96 343.316 432.607 352.624 423.766 363.617Z" fill="#FFB66F"/>
<path id="Path 15_2" fill-rule="evenodd" clip-rule="evenodd" d="M403.677 386.588C403.677 386.588 399.304 390.833 399.758 391.162C400.213 391.491 405.482 387.893 405.482 387.893L403.677 386.588Z" fill="black" fill-opacity="0.159856"/>
<path id="Path 76" fill-rule="evenodd" clip-rule="evenodd" d="M406.125 387.623L393.127 400.491L399.626 404.744L408.555 389.459L406.125 387.623Z" fill="#FFEDC2"/>
</g>
<g id="LLeg_5">
<path id="Path_137" fill-rule="evenodd" clip-rule="evenodd" d="M447.635 503.233L440.604 525.882L452.422 526.413C452.422 526.413 450.756 518.665 453.134 511.403C455.041 505.572 456.598 502.663 456.598 502.663L447.635 503.233Z" fill="url(#paint22_linear_6_1711)"/>
<path id="Path_138" fill-rule="evenodd" clip-rule="evenodd" d="M452.518 519.78C452.518 519.78 452.271 525.547 454.285 527.369C456.298 529.19 466.978 535.917 467.873 537.272C468.768 538.628 467.455 540.283 467.455 540.283C467.455 540.283 456.551 541.993 451.407 539.354C447.694 537.448 445.041 535.891 445.041 535.891L443.901 538.82L437.947 537.965C437.947 537.965 436.112 533.316 436.9 531.004C437.689 528.692 441.758 517.889 441.758 517.889C441.758 517.889 452.518 519.78 452.518 519.78Z" fill="#391B0B"/>
<path id="Path_139" fill-rule="evenodd" clip-rule="evenodd" d="M413.247 426.031C422.136 426.898 465.92 437.326 474.935 439.178C483.95 441.03 491.572 451.051 484.698 462.654C476.976 475.679 455.149 516.158 455.149 516.158C455.014 516.191 454.882 516.249 454.746 516.249C450.306 516.249 446.348 515.641 442.537 512.985C442.537 512.985 448.328 470.54 461.811 458.712C461.811 458.712 426.993 471.231 409.581 457.571C399.309 449.513 403.451 425.075 413.247 426.031Z" fill="#33373E"/>
<path id="Combined Shape_5" fill-rule="evenodd" clip-rule="evenodd" d="M481.573 442.255L479.182 472.278C479.379 471.928 479.573 471.582 479.766 471.24L482.044 442.636C481.889 442.506 481.732 442.379 481.573 442.255Z" fill="white" fill-opacity="0.192499"/>
</g>
<g id="RLeg_4">
<path id="Path_140" fill-rule="evenodd" clip-rule="evenodd" d="M513.095 501.444C513.095 501.444 516.972 518.714 522.017 520.562C523.96 521.273 510.031 523.305 510.031 523.305L505.806 506.737L513.095 501.444Z" fill="url(#paint23_linear_6_1711)"/>
<path id="Path_141" fill-rule="evenodd" clip-rule="evenodd" d="M508.255 518.544L511.933 540.165L518.309 539.157L517.522 533.811C517.522 533.811 520.318 538.468 523.437 538.267C526.565 538.065 542.207 535.707 542.207 535.707C542.207 535.707 542.559 530.529 535.364 529.346C529.379 528.363 519.174 516.809 519.174 516.809L508.255 518.544Z" fill="#391B0B"/>
<path id="Path_142" fill-rule="evenodd" clip-rule="evenodd" d="M420.704 423.171C420.704 423.171 407.872 450.35 425.905 459.682C443.344 468.708 489.748 457.063 489.748 457.063C489.748 457.063 488.815 464.596 489.748 471.314C492.184 488.861 504.166 510.449 505.256 514.007C505.805 515.798 519.169 513.151 519.169 511.026C519.169 508.901 512.351 460.537 511.137 450.236C509.93 439.934 506.118 438.438 494.986 435.622C492.428 434.975 459.282 427.436 456.511 427.656C432.705 429.544 420.704 423.171 420.704 423.171Z" fill="#42474F"/>
<path id="Path_143" fill-rule="evenodd" clip-rule="evenodd" d="M456.511 427.656C459.282 427.436 492.428 434.975 494.986 435.622L496.814 436.091C506.309 438.575 509.828 440.428 511.051 449.547L511.38 452.165C512.382 459.804 515.09 477.769 517.233 492.725C514.815 487.228 512.814 481.129 511.23 474.427C507.538 458.808 508.328 445.982 507.337 443.736C506.345 441.49 457.857 434.32 449.526 432.84C445.899 432.196 443.854 430.599 443.389 428.048C447.415 428.161 451.789 428.031 456.511 427.656Z" fill="white" fill-opacity="0.192499"/>
</g>
<g id="Head_5">
<path id="Path_144" fill-rule="evenodd" clip-rule="evenodd" d="M450.202 318.877C454.054 319.299 453.781 326.08 449.092 326.434C448.134 332.97 444.716 336.084 440.549 336.444L440.78 346.331L422.347 346.32C422.347 346.32 427.538 339.336 427.279 329.775C427.02 320.213 427.453 311.231 427.453 311.231L451.327 311.66L450.202 318.877Z" fill="url(#paint24_linear_6_1711)"/>
<path id="Path_145" fill-rule="evenodd" clip-rule="evenodd" d="M451.04 319.385C446.553 317.609 443.239 325.257 439.806 330.573C436.373 335.889 427.48 334.985 426.254 330.573C421.613 320.908 417.614 307.769 423.029 306.691C423.792 292.723 460.306 296.021 451.04 319.385Z" fill="#9E5229"/>
<path id="Combined Shape_6" fill-rule="evenodd" clip-rule="evenodd" d="M426.016 301.156H433.929H434.04L434.115 301.239C441.144 309.095 442.718 320.664 439.433 331.099C439.179 331.427 438.903 331.727 438.608 332.001C442.286 321.471 440.877 309.618 433.817 301.656H425.428C425.615 301.483 425.811 301.316 426.016 301.156Z" fill="black" fill-opacity="0.199355"/>
<ellipse id="Oval_11" cx="4.4008" cy="4.40615" rx="4.4008" ry="4.40615" transform="matrix(-1 0 0 1 435.268 297)" fill="#FB9934"/>
</g>
<g id="Body_5">
<path id="Path_146" fill-rule="evenodd" clip-rule="evenodd" d="M454.708 348.001C458.788 353.987 465.589 374.303 465.975 378.873C466.409 384.145 460.749 392.544 460.656 400.176C460.574 407.809 464.878 426.915 463.585 429.062C462.302 431.209 419.688 443.621 417.288 442.601C414.887 441.581 406.6 430.581 408.494 426.11C410.398 421.64 418.264 411.499 417.363 405.408C416.474 399.318 411.306 376.836 408.74 369.184C406.184 361.532 407.036 353.499 411.806 350.206C414.167 348.577 420.465 343.948 431.681 343.97C442.897 343.991 454.391 347.537 454.708 348.001Z" fill="#FF9F43"/>
<path id="Path_147" fill-rule="evenodd" clip-rule="evenodd" d="M463.855 373.966L444.3 359.915L444.306 362.483C444.378 378.33 445.376 386.724 461.973 412.695L461.589 410.048C461.048 406.206 460.629 402.608 460.656 400.176C460.714 395.361 462.989 390.241 464.551 385.793L463.855 373.966Z" fill="black" fill-opacity="0.159856"/>
<path id="Path 68" fill-rule="evenodd" clip-rule="evenodd" d="M442.043 343.532C442.043 343.532 442.515 346.106 440.449 346.106C438.382 346.106 424.522 346.562 422.646 345.748C420.769 344.934 421.332 343.532 421.332 343.532H442.043Z" fill="#FFF6E1"/>
</g>
<g id="LArm_5">
<path id="Path_148" fill-rule="evenodd" clip-rule="evenodd" d="M511.124 378.861C511.124 378.861 522.41 371.328 524.405 369.815C526.393 368.309 528.888 356.885 527.342 355.283C526.595 354.507 520.948 359.725 519.941 360.424C518.941 361.116 513.82 364.2 513.82 364.2C513.82 364.2 515.269 355.456 514.022 354.751C513.099 354.238 511.254 356.488 511.007 358.866C510.76 361.244 508.194 364.347 507.862 367.956C507.713 369.533 507.129 371.577 507.129 371.577L475.813 385.025L479.09 399.648L511.124 378.861Z" fill="url(#paint25_linear_6_1711)"/>
<path id="Path_149" fill-rule="evenodd" clip-rule="evenodd" d="M443.906 364.416C448.231 373.4 455.576 386.534 459.61 394.235C464.384 403.349 470.073 407.21 481.547 400.448C482.89 399.656 485.795 397.892 485.795 397.892L478.691 382.12L474.963 383.768C474.963 383.768 463.974 363.701 459.412 354.067C453.608 341.822 435.536 347.03 443.906 364.416Z" fill="#FFB66F"/>
<path id="Path_150" fill-rule="evenodd" clip-rule="evenodd" d="M474.964 383.768C474.964 383.768 476.973 390.842 477.448 390.563C477.922 390.283 477.115 382.753 477.115 382.753L474.964 383.768Z" fill="black" fill-opacity="0.159856"/>
<path id="Path 75" fill-rule="evenodd" clip-rule="evenodd" d="M478.591 381.423L483.539 401.058L490.9 397.077L481.24 379.894L478.591 381.423Z" fill="#FFEDC2"/>
</g>
<path id="Path_151" fill-rule="evenodd" clip-rule="evenodd" d="M431.338 298.15C431.338 298.15 427.189 292.84 422.399 294.233C417.608 295.626 413.275 304.165 415.332 312.191C417.379 320.219 415.691 324.797 413.208 330.207C406.536 344.76 429.634 354 429.634 354C429.634 354 427.832 343.217 431.338 336.705C434.948 329.999 436.998 321.399 436.998 316.137C436.998 306.986 431.338 298.15 431.338 298.15Z" fill="#9E5229"/>
</g>
<g id="Chair8_2">
<path id="Path_152" fill-rule="evenodd" clip-rule="evenodd" d="M430.657 461.221L442.1 542.179L436.1 542.1L424.657 462.067L430.657 461.221Z" fill="#91D6FF"/>
<path id="Path_153" fill-rule="evenodd" clip-rule="evenodd" d="M463.955 461.221L475.398 542.179L469.399 542.1L457.956 462.067L463.955 461.221Z" fill="#91D6FF"/>
<path id="Path_154" fill-rule="evenodd" clip-rule="evenodd" d="M390.91 461.221L379.467 542.179L385.466 542.1L396.909 462.067L390.91 461.221Z" fill="#BFE7FF"/>
<path id="Path_155" fill-rule="evenodd" clip-rule="evenodd" d="M468.332 465.983C473.549 465.983 477.777 461.754 477.777 456.538C477.777 451.321 473.549 447.092 468.332 447.092H430.57C424.848 447.092 420.066 442.739 419.531 437.043L413.493 372.85C412.957 367.153 408.175 362.8 402.453 362.8H378.753C372.295 362.8 367.203 368.298 367.698 374.737L373.922 455.744C374.366 461.522 379.183 465.983 384.978 465.983H468.332Z" fill="#BFE7FF"/>
<path id="Combined Shape_7" fill-rule="evenodd" clip-rule="evenodd" d="M477.776 456.457C477.724 456.458 477.672 456.458 477.619 456.458H425.636C419.843 456.458 415.026 451.998 414.581 446.222L408.274 364.363C411.218 366.121 413.292 369.21 413.635 372.847L419.668 436.806C420.205 442.501 424.986 446.853 430.707 446.853H468.357C473.56 446.853 477.777 451.071 477.777 456.274C477.777 456.335 477.777 456.396 477.776 456.457Z" fill="#91D6FF"/>
</g>
</g>
</g>
<defs>
<filter id="filter0_dd_6_1711" x="69.8555" y="83.0082" width="191.801" height="107.428" filterUnits="userSpaceOnUse" color-interpolation-filters="sRGB">
<feFlood flood-opacity="0" result="BackgroundImageFix"/>
<feColorMatrix in="SourceAlpha" type="matrix" values="0 0 0 0 0 0 0 0 0 0 0 0 0 0 0 0 0 0 127 0" result="hardAlpha"/>
<feOffset dx="8" dy="9"/>
<feGaussianBlur stdDeviation="14"/>
<feColorMatrix type="matrix" values="0 0 0 0 0.0755213 0 0 0 0 0.582569 0 0 0 0 0.878793 0 0 0 0.229458 0"/>
<feBlend mode="normal" in2="BackgroundImageFix" result="effect1_dropShadow_6_1711"/>
<feColorMatrix in="SourceAlpha" type="matrix" values="0 0 0 0 0 0 0 0 0 0 0 0 0 0 0 0 0 0 127 0" result="hardAlpha"/>
<feOffset dy="2"/>
<feGaussianBlur stdDeviation="7.5"/>
<feColorMatrix type="matrix" values="0 0 0 0 0.503982 0 0 0 0 0.700178 0 0 0 0 1 0 0 0 0.233829 0"/>
<feBlend mode="normal" in2="effect1_dropShadow_6_1711" result="effect2_dropShadow_6_1711"/>
<feBlend mode="normal" in="SourceGraphic" in2="effect2_dropShadow_6_1711" result="shape"/>
</filter>
<filter id="filter1_dd_6_1711" x="69.8555" y="141.592" width="224.949" height="198.68" filterUnits="userSpaceOnUse" color-interpolation-filters="sRGB">
<feFlood flood-opacity="0" result="BackgroundImageFix"/>
<feColorMatrix in="SourceAlpha" type="matrix" values="0 0 0 0 0 0 0 0 0 0 0 0 0 0 0 0 0 0 127 0" result="hardAlpha"/>
<feOffset dx="8" dy="9"/>
<feGaussianBlur stdDeviation="14"/>
<feColorMatrix type="matrix" values="0 0 0 0 0.0755213 0 0 0 0 0.582569 0 0 0 0 0.878793 0 0 0 0.229458 0"/>
<feBlend mode="normal" in2="BackgroundImageFix" result="effect1_dropShadow_6_1711"/>
<feColorMatrix in="SourceAlpha" type="matrix" values="0 0 0 0 0 0 0 0 0 0 0 0 0 0 0 0 0 0 127 0" result="hardAlpha"/>
<feOffset dy="2"/>
<feGaussianBlur stdDeviation="7.5"/>
<feColorMatrix type="matrix" values="0 0 0 0 0.503982 0 0 0 0 0.700178 0 0 0 0 1 0 0 0 0.233829 0"/>
<feBlend mode="normal" in2="effect1_dropShadow_6_1711" result="effect2_dropShadow_6_1711"/>
<feBlend mode="normal" in="SourceGraphic" in2="effect2_dropShadow_6_1711" result="shape"/>
</filter>
<filter id="filter2_d_6_1711" x="95.5059" y="202.89" width="161.424" height="97.3127" filterUnits="userSpaceOnUse" color-interpolation-filters="sRGB">
<feFlood flood-opacity="0" result="BackgroundImageFix"/>
<feColorMatrix in="SourceAlpha" type="matrix" values="0 0 0 0 0 0 0 0 0 0 0 0 0 0 0 0 0 0 127 0" result="hardAlpha"/>
<feOffset dy="13"/>
<feGaussianBlur stdDeviation="7.5"/>
<feColorMatrix type="matrix" values="0 0 0 0 0 0 0 0 0 0 0 0 0 0 0 0 0 0 0.144395 0"/>
<feBlend mode="normal" in2="BackgroundImageFix" result="effect1_dropShadow_6_1711"/>
<feBlend mode="normal" in="SourceGraphic" in2="effect1_dropShadow_6_1711" result="shape"/>
</filter>
<filter id="filter3_d_6_1711" x="275.232" y="105.237" width="272.182" height="197.485" filterUnits="userSpaceOnUse" color-interpolation-filters="sRGB">
<feFlood flood-opacity="0" result="BackgroundImageFix"/>
<feColorMatrix in="SourceAlpha" type="matrix" values="0 0 0 0 0 0 0 0 0 0 0 0 0 0 0 0 0 0 127 0" result="hardAlpha"/>
<feOffset dx="6" dy="6"/>
<feGaussianBlur stdDeviation="8"/>
<feColorMatrix type="matrix" values="0 0 0 0 0.70188 0 0 0 0 0.70188 0 0 0 0 0.70188 0 0 0 0.208725 0"/>
<feBlend mode="normal" in2="BackgroundImageFix" result="effect1_dropShadow_6_1711"/>
<feBlend mode="normal" in="SourceGraphic" in2="effect1_dropShadow_6_1711" result="shape"/>
</filter>
<linearGradient id="paint0_linear_6_1711" x1="553.831" y1="311.939" x2="542.751" y2="361.416" gradientUnits="userSpaceOnUse">
<stop stop-color="#FFAFAF"/>
<stop offset="1" stop-color="#F07777"/>
</linearGradient>
<linearGradient id="paint1_linear_6_1711" x1="552.971" y1="302.545" x2="546.323" y2="335.064" gradientUnits="userSpaceOnUse">
<stop stop-color="#FDC6C6"/>
<stop offset="1" stop-color="#FAB2B2"/>
</linearGradient>
<linearGradient id="paint2_linear_6_1711" x1="505.96" y1="505.352" x2="504.367" y2="535.133" gradientUnits="userSpaceOnUse">
<stop stop-color="#FDC6C6"/>
<stop offset="1" stop-color="#FAB2B2"/>
</linearGradient>
<linearGradient id="paint3_linear_6_1711" x1="474.89" y1="543.704" x2="426.815" y2="451.427" gradientUnits="userSpaceOnUse">
<stop stop-color="#28324F"/>
<stop offset="1" stop-color="#222735"/>
</linearGradient>
<linearGradient id="paint4_linear_6_1711" x1="469.77" y1="340.915" x2="467.618" y2="369.518" gradientUnits="userSpaceOnUse">
<stop stop-color="#FDC6C6"/>
<stop offset="1" stop-color="#FAB2B2"/>
</linearGradient>
<linearGradient id="paint5_linear_6_1711" x1="548.733" y1="370.46" x2="548.102" y2="388.93" gradientUnits="userSpaceOnUse">
<stop stop-color="#FDC6C6"/>
<stop offset="1" stop-color="#FAB2B2"/>
</linearGradient>
<linearGradient id="paint6_linear_6_1711" x1="241.336" y1="202.269" x2="231.447" y2="203.194" gradientUnits="userSpaceOnUse">
<stop stop-color="#4D63A0"/>
<stop offset="1" stop-color="#222735"/>
</linearGradient>
<linearGradient id="paint7_linear_6_1711" x1="126.011" y1="401.433" x2="126.011" y2="417.998" gradientUnits="userSpaceOnUse">
<stop stop-color="#FE62BE"/>
<stop offset="1" stop-color="#FDB3A8"/>
</linearGradient>
<linearGradient id="paint8_linear_6_1711" x1="102.289" y1="388.795" x2="104.02" y2="405.27" gradientUnits="userSpaceOnUse">
<stop stop-color="#FE62BE"/>
<stop offset="1" stop-color="#FDB3A8"/>
</linearGradient>
<linearGradient id="paint9_linear_6_1711" x1="663.727" y1="503.858" x2="662.131" y2="533.708" gradientUnits="userSpaceOnUse">
<stop stop-color="#FDC6C6"/>
<stop offset="1" stop-color="#FAB2B2"/>
</linearGradient>
<linearGradient id="paint10_linear_6_1711" x1="659.093" y1="331.529" x2="654.853" y2="392.079" gradientUnits="userSpaceOnUse">
<stop stop-color="#FDC6C6"/>
<stop offset="1" stop-color="#FAB2B2"/>
</linearGradient>
<linearGradient id="paint11_linear_6_1711" x1="713.443" y1="307.528" x2="702.218" y2="357.065" gradientUnits="userSpaceOnUse">
<stop stop-color="#FFAFAF"/>
<stop offset="1" stop-color="#F07777"/>
</linearGradient>
<linearGradient id="paint12_linear_6_1711" x1="712.685" y1="298.112" x2="706.025" y2="330.709" gradientUnits="userSpaceOnUse">
<stop stop-color="#FDC6C6"/>
<stop offset="1" stop-color="#FAB2B2"/>
</linearGradient>
<linearGradient id="paint13_linear_6_1711" x1="628.45" y1="505.061" x2="626.889" y2="538.334" gradientUnits="userSpaceOnUse">
<stop stop-color="#FDC6C6"/>
<stop offset="1" stop-color="#FAB2B2"/>
</linearGradient>
<linearGradient id="paint14_linear_6_1711" x1="738.378" y1="364.401" x2="736.871" y2="403.785" gradientUnits="userSpaceOnUse">
<stop stop-color="#FDC6C6"/>
<stop offset="1" stop-color="#FAB2B2"/>
</linearGradient>
<linearGradient id="paint15_linear_6_1711" x1="585.221" y1="334.275" x2="597.146" y2="382.102" gradientUnits="userSpaceOnUse">
<stop stop-color="#9FF6EC"/>
<stop offset="1" stop-color="#7D9DFF"/>
</linearGradient>
<linearGradient id="paint16_linear_6_1711" x1="290.949" y1="390.304" x2="302.7" y2="416.424" gradientUnits="userSpaceOnUse">
<stop stop-color="#FDC6C6"/>
<stop offset="1" stop-color="#A47070"/>
</linearGradient>
<linearGradient id="paint17_linear_6_1711" x1="321.015" y1="291.839" x2="317.539" y2="338.739" gradientUnits="userSpaceOnUse">
<stop stop-color="#FDC6C6"/>
<stop offset="1" stop-color="#A47070"/>
</linearGradient>
<linearGradient id="paint18_linear_6_1711" x1="406.317" y1="343.095" x2="403.967" y2="375.735" gradientUnits="userSpaceOnUse">
<stop stop-color="#FDC6C6"/>
<stop offset="1" stop-color="#A47070"/>
</linearGradient>
<linearGradient id="paint19_linear_6_1711" x1="551.736" y1="393.207" x2="551.736" y2="396.386" gradientUnits="userSpaceOnUse">
<stop stop-color="#9FF6EC"/>
<stop offset="1" stop-color="#7D9DFF"/>
</linearGradient>
<linearGradient id="paint20_linear_6_1711" x1="558.029" y1="345.282" x2="558.029" y2="393.909" gradientUnits="userSpaceOnUse">
<stop stop-color="#9FF6EC"/>
<stop offset="1" stop-color="#7D9DFF"/>
</linearGradient>
<linearGradient id="paint21_linear_6_1711" x1="421.208" y1="368.874" x2="441.753" y2="415.819" gradientUnits="userSpaceOnUse">
<stop stop-color="#FDC6C6"/>
<stop offset="1" stop-color="#FFCCA1"/>
</linearGradient>
<linearGradient id="paint22_linear_6_1711" x1="459.365" y1="496.881" x2="456.668" y2="525.059" gradientUnits="userSpaceOnUse">
<stop stop-color="#FDC6C6"/>
<stop offset="1" stop-color="#FAB2B2"/>
</linearGradient>
<linearGradient id="paint23_linear_6_1711" x1="525.04" y1="496.123" x2="522.808" y2="522.105" gradientUnits="userSpaceOnUse">
<stop stop-color="#FDC6C6"/>
<stop offset="1" stop-color="#FAB2B2"/>
</linearGradient>
<linearGradient id="paint24_linear_6_1711" x1="458.153" y1="302.686" x2="455.055" y2="344.483" gradientUnits="userSpaceOnUse">
<stop stop-color="#FDC6C6"/>
<stop offset="1" stop-color="#FFCCA1"/>
</linearGradient>
<linearGradient id="paint25_linear_6_1711" x1="536.824" y1="343.73" x2="533.833" y2="397.407" gradientUnits="userSpaceOnUse">
<stop stop-color="#FDC6C6"/>
<stop offset="1" stop-color="#FFCCA1"/>
</linearGradient>
</defs>
</svg>
