<svg width="30" height="30" viewBox="0 0 30 30" fill="none" xmlns="http://www.w3.org/2000/svg">
<rect width="30" height="30" rx="6" fill="#DB3236"/>
<path fill-rule="evenodd" clip-rule="evenodd" d="M19.6667 9.75H10.3334C9.34171 9.75 8.58337 10.5083 8.58337 11.5V18.5C8.58337 19.4917 9.34171 20.25 10.3334 20.25H19.6667C20.6584 20.25 21.4167 19.4917 21.4167 18.5V11.5C21.4167 10.5083 20.6584 9.75 19.6667 9.75ZM10.3334 10.9167H19.6667C19.9 10.9167 20.075 11.0333 20.1917 11.2667L15 14.8833L9.80837 11.2667C9.92504 11.0333 10.1 10.9167 10.3334 10.9167ZM9.75004 18.5C9.75004 18.85 9.98337 19.0833 10.3334 19.0833H19.6667C20.0167 19.0833 20.25 18.85 20.25 18.5V12.6083L15.35 16.05C15.2334 16.1083 15.1167 16.1667 15 16.1667C14.8834 16.1667 14.7667 16.1083 14.65 16.05L9.75004 12.6083V18.5Z" fill="black"/>
<mask id="mask0_246_1342" style="mask-type:luminance" maskUnits="userSpaceOnUse" x="8" y="9" width="14" height="12">
<path fill-rule="evenodd" clip-rule="evenodd" d="M19.6667 9.75H10.3334C9.34171 9.75 8.58337 10.5083 8.58337 11.5V18.5C8.58337 19.4917 9.34171 20.25 10.3334 20.25H19.6667C20.6584 20.25 21.4167 19.4917 21.4167 18.5V11.5C21.4167 10.5083 20.6584 9.75 19.6667 9.75ZM10.3334 10.9167H19.6667C19.9 10.9167 20.075 11.0333 20.1917 11.2667L15 14.8833L9.80837 11.2667C9.92504 11.0333 10.1 10.9167 10.3334 10.9167ZM9.75004 18.5C9.75004 18.85 9.98337 19.0833 10.3334 19.0833H19.6667C20.0167 19.0833 20.25 18.85 20.25 18.5V12.6083L15.35 16.05C15.2334 16.1083 15.1167 16.1667 15 16.1667C14.8834 16.1667 14.7667 16.1083 14.65 16.05L9.75004 12.6083V18.5Z" fill="white"/>
</mask>
<g mask="url(#mask0_246_1342)">
<rect x="8" y="8" width="14" height="14" fill="white"/>
</g>
</svg>
