<svg width="30" height="30" viewBox="0 0 30 30" fill="none" xmlns="http://www.w3.org/2000/svg">
<rect width="30" height="30" rx="6" fill="#00ACEE"/>
<path fill-rule="evenodd" clip-rule="evenodd" d="M21.1117 9.27683C21.2864 9.1595 21.5774 9.1595 21.752 9.27683C21.9267 9.39415 22.0431 9.6288 21.9849 9.86345C21.8102 10.6847 21.4028 11.4473 20.8207 12.0926V12.3859C20.8207 15.6124 19.4237 18.3109 16.9207 19.7188C15.6401 20.4814 14.2431 20.8334 12.7879 20.8334C11.3327 20.8334 9.76109 20.4227 8.30588 19.6014C8.07304 19.4841 7.95663 19.1908 8.01483 18.9562C8.07304 18.7215 8.36408 18.5455 8.59692 18.5455C9.58646 18.5455 10.576 18.3695 11.4491 17.9589C9.29542 16.6096 8.71333 14.7324 8.65513 13.2659C8.59692 11.5647 9.179 10.1568 9.23721 10.0981C9.29542 9.92212 9.47004 9.74613 9.70288 9.74613C9.93571 9.74613 10.1103 9.80479 10.2268 9.98078C11.2163 11.3887 12.7297 12.2686 14.4178 12.3859C14.4178 11.4473 14.8252 10.5674 15.5819 9.98078C16.8043 8.86619 18.6088 8.92485 19.7729 9.98078C20.2386 9.80479 20.7043 9.57014 21.1117 9.27683ZM19.5983 12.034C19.5983 11.858 19.6565 11.6233 19.7729 11.506C19.8311 11.418 19.8894 11.3447 19.9476 11.2714C20.0058 11.198 20.064 11.1247 20.1222 11.0367C20.064 11.066 19.9912 11.0807 19.9185 11.0954C19.8457 11.11 19.7729 11.1247 19.7147 11.154C19.5401 11.2127 19.3073 11.154 19.1326 10.978C18.4341 10.1568 17.0953 10.0394 16.2804 10.8021C15.8148 11.2127 15.5819 11.7993 15.5819 12.3859V12.9726C15.5819 13.2659 15.2909 13.5592 14.9998 13.5592C13.079 13.6179 11.2745 12.8552 9.99392 11.5647C9.64467 13.0312 9.52825 15.9057 12.9043 17.4309C13.079 17.4896 13.2536 17.6656 13.2536 17.9002C13.2536 18.1349 13.1954 18.3109 12.9626 18.4282C12.3223 18.8975 11.6238 19.1908 10.867 19.4255C12.7879 19.8948 14.7088 19.6601 16.3386 18.7215C18.4341 17.4896 19.6565 15.2017 19.6565 12.3859C19.6565 12.2686 19.6565 12.1513 19.5983 12.034Z" fill="black"/>
<mask id="mask0_246_1345" style="mask-type:luminance" maskUnits="userSpaceOnUse" x="8" y="9" width="14" height="12">
<path fill-rule="evenodd" clip-rule="evenodd" d="M21.1117 9.27683C21.2864 9.1595 21.5774 9.1595 21.752 9.27683C21.9267 9.39415 22.0431 9.6288 21.9849 9.86345C21.8102 10.6847 21.4028 11.4473 20.8207 12.0926V12.3859C20.8207 15.6124 19.4237 18.3109 16.9207 19.7188C15.6401 20.4814 14.2431 20.8334 12.7879 20.8334C11.3327 20.8334 9.76109 20.4227 8.30588 19.6014C8.07304 19.4841 7.95663 19.1908 8.01483 18.9562C8.07304 18.7215 8.36408 18.5455 8.59692 18.5455C9.58646 18.5455 10.576 18.3695 11.4491 17.9589C9.29542 16.6096 8.71333 14.7324 8.65513 13.2659C8.59692 11.5647 9.179 10.1568 9.23721 10.0981C9.29542 9.92212 9.47004 9.74613 9.70288 9.74613C9.93571 9.74613 10.1103 9.80479 10.2268 9.98078C11.2163 11.3887 12.7297 12.2686 14.4178 12.3859C14.4178 11.4473 14.8252 10.5674 15.5819 9.98078C16.8043 8.86619 18.6088 8.92485 19.7729 9.98078C20.2386 9.80479 20.7043 9.57014 21.1117 9.27683ZM19.5983 12.034C19.5983 11.858 19.6565 11.6233 19.7729 11.506C19.8311 11.418 19.8894 11.3447 19.9476 11.2714C20.0058 11.198 20.064 11.1247 20.1222 11.0367C20.064 11.066 19.9912 11.0807 19.9185 11.0954C19.8457 11.11 19.7729 11.1247 19.7147 11.154C19.5401 11.2127 19.3073 11.154 19.1326 10.978C18.4341 10.1568 17.0953 10.0394 16.2804 10.8021C15.8148 11.2127 15.5819 11.7993 15.5819 12.3859V12.9726C15.5819 13.2659 15.2909 13.5592 14.9998 13.5592C13.079 13.6179 11.2745 12.8552 9.99392 11.5647C9.64467 13.0312 9.52825 15.9057 12.9043 17.4309C13.079 17.4896 13.2536 17.6656 13.2536 17.9002C13.2536 18.1349 13.1954 18.3109 12.9626 18.4282C12.3223 18.8975 11.6238 19.1908 10.867 19.4255C12.7879 19.8948 14.7088 19.6601 16.3386 18.7215C18.4341 17.4896 19.6565 15.2017 19.6565 12.3859C19.6565 12.2686 19.6565 12.1513 19.5983 12.034Z" fill="white"/>
</mask>
<g mask="url(#mask0_246_1345)">
<rect x="8" y="8" width="14" height="14" fill="white"/>
</g>
</svg>
